<svg xmlns="http://www.w3.org/2000/svg" width="53.4" height="60.906" viewBox="0 0 53.4 60.906">
  <metadata><?xpacket begin="﻿" id="W5M0MpCehiHzreSzNTczkc9d"?>
<x:xmpmeta xmlns:x="adobe:ns:meta/" x:xmptk="Adobe XMP Core 5.6-c142 79.160924, 2017/07/13-01:06:39        ">
   <rdf:RDF xmlns:rdf="http://www.w3.org/1999/02/22-rdf-syntax-ns#">
      <rdf:Description rdf:about=""/>
   </rdf:RDF>
</x:xmpmeta>
                                                                                                    
                                                                                                    
                                                                                                    
                                                                                                    
                                                                                                    
                                                                                                    
                                                                                                    
                                                                                                    
                                                                                                    
                                                                                                    
                                                                                                    
                                                                                                    
                                                                                                    
                                                                                                    
                                                                                                    
                                                                                                    
                                                                                                    
                                                                                                    
                                                                                                    
                                                                                                    
                           
<?xpacket end="w"?></metadata>
<defs>
    <style>
      .cls-1 {
        fill: #fff;
        fill-rule: evenodd;
      }
    </style>
  </defs>
  <path id="Analytics-icon" class="cls-1" d="M8470.75,637.084a3.584,3.584,0,0,1-3.82-3.806v-7.612a3.584,3.584,0,0,1,3.82-3.805h7.62a3.579,3.579,0,0,1,3.82,3.805v7.612a3.579,3.579,0,0,1-3.82,3.806h-7.62Zm19.07,0a3.864,3.864,0,0,1-3.81-3.806V580a3.866,3.866,0,0,1,3.81-3.806h7.63a3.866,3.866,0,0,1,3.81,3.806v53.279a3.864,3.864,0,0,1-3.81,3.806h-7.63Zm19.07,0a3.9,3.9,0,0,1-3.81-3.806v-34.25a3.9,3.9,0,0,1,3.81-3.806h7.63a3.906,3.906,0,0,1,3.82,3.806v34.25a3.9,3.9,0,0,1-3.82,3.806h-7.63Z" transform="translate(-8466.94 -576.188)"/>
</svg>
