<svg xmlns="http://www.w3.org/2000/svg" xmlns:xlink="http://www.w3.org/1999/xlink" width="53.4" height="64.722" viewBox="0 0 53.4 64.722">
  <metadata><?xpacket begin="﻿" id="W5M0MpCehiHzreSzNTczkc9d"?>
<x:xmpmeta xmlns:x="adobe:ns:meta/" x:xmptk="Adobe XMP Core 5.6-c142 79.160924, 2017/07/13-01:06:39        ">
   <rdf:RDF xmlns:rdf="http://www.w3.org/1999/02/22-rdf-syntax-ns#">
      <rdf:Description rdf:about=""/>
   </rdf:RDF>
</x:xmpmeta>
                                                                                                    
                                                                                                    
                                                                                                    
                                                                                                    
                                                                                                    
                                                                                                    
                                                                                                    
                                                                                                    
                                                                                                    
                                                                                                    
                                                                                                    
                                                                                                    
                                                                                                    
                                                                                                    
                                                                                                    
                                                                                                    
                                                                                                    
                                                                                                    
                                                                                                    
                                                                                                    
                           
<?xpacket end="w"?></metadata>
<defs>
    <style>
      .cls-1 {
        fill: #fff;
        fill-rule: evenodd;
        filter: url(#filter);
      }
    </style>
    <filter id="filter" x="8466.94" y="963.188" width="53.4" height="64.722" filterUnits="userSpaceOnUse">
      <feFlood result="flood" flood-color="#354052"/>
      <feComposite result="composite" operator="in" in2="SourceGraphic"/>
      <feBlend result="blend" in2="SourceGraphic"/>
    </filter>
  </defs>
  <path id="Customers-icon" class="cls-1" d="M8501.23,970.81a7.59,7.59,0,1,1-7.59-7.609,7.6,7.6,0,0,1,7.59,7.609h0Zm-21.95,17.051,1.54,16.469a2.6,2.6,0,0,0,2.52,2.31l1.13,0.04a1.756,1.756,0,0,1,1.71,1.61l1.37,17.3a2.575,2.575,0,0,0,2.6,2.31h7.05a2.559,2.559,0,0,0,2.59-2.32l1.37-17.3a1.752,1.752,0,0,1,1.7-1.6l1.13-.04a2.564,2.564,0,0,0,2.48-2.27l1.53-16.509c0-2.195-4.45-5.631-6.74-5.631h-15.25c-2.29,0-6.73,3.436-6.73,5.631h0Zm32.31,0-1.55,16.809a6.032,6.032,0,0,1-4.38,5.17,1.654,1.654,0,0,0-1.14,1.32l-0.86,9.22a1.892,1.892,0,0,0,1.92,2.03h5.28a2.236,2.236,0,0,0,2.27-2.04l1.21-15.18a1.528,1.528,0,0,1,1.49-1.4l0.99-.04a2.233,2.233,0,0,0,2.17-1.99l1.35-14.485a3.565,3.565,0,0,0-3.63-3.492h-4.22a1.327,1.327,0,0,0-1.3,1.741,7.253,7.253,0,0,1,.4,2.337h0Zm-4.92-22.147a1.474,1.474,0,0,0-1.21,1.98,11.3,11.3,0,0,1-1.12,10.573,1.46,1.46,0,0,0,.81,2.167c5.4,1.842,11.08-2.322,10.51-7.949a7.858,7.858,0,0,0-8.99-6.771h0Zm-30.59,19.81a1.327,1.327,0,0,0-1.3-1.741h-4.22a3.559,3.559,0,0,0-3.63,3.492l1.34,14.485a2.235,2.235,0,0,0,2.18,1.99l0.99,0.04a1.528,1.528,0,0,1,1.49,1.4l1.2,15.18a2.253,2.253,0,0,0,2.28,2.04h5.27a1.894,1.894,0,0,0,1.93-2.03l-0.86-9.22a1.666,1.666,0,0,0-1.15-1.32,6.059,6.059,0,0,1-4.38-5.17l-1.54-16.809a6.992,6.992,0,0,1,.4-2.337h0Zm-4.47-13.039c-0.57,5.627,5.11,9.791,10.51,7.949a1.451,1.451,0,0,0,.8-2.167,11.329,11.329,0,0,1-1.12-10.573,1.469,1.469,0,0,0-1.2-1.98,7.858,7.858,0,0,0-8.99,6.771h0Z" transform="translate(-8466.94 -963.188)"/>
</svg>
