<svg xmlns="http://www.w3.org/2000/svg" width="61.03" height="60.91" viewBox="0 0 61.03 60.91">
  <metadata><?xpacket begin="﻿" id="W5M0MpCehiHzreSzNTczkc9d"?>
<x:xmpmeta xmlns:x="adobe:ns:meta/" x:xmptk="Adobe XMP Core 5.6-c142 79.160924, 2017/07/13-01:06:39        ">
   <rdf:RDF xmlns:rdf="http://www.w3.org/1999/02/22-rdf-syntax-ns#">
      <rdf:Description rdf:about=""/>
   </rdf:RDF>
</x:xmpmeta>
                                                                                                    
                                                                                                    
                                                                                                    
                                                                                                    
                                                                                                    
                                                                                                    
                                                                                                    
                                                                                                    
                                                                                                    
                                                                                                    
                                                                                                    
                                                                                                    
                                                                                                    
                                                                                                    
                                                                                                    
                                                                                                    
                                                                                                    
                                                                                                    
                                                                                                    
                                                                                                    
                           
<?xpacket end="w"?></metadata>
<defs>
    <style>
      .cls-1 {
        fill: #fff;
        fill-rule: evenodd;
      }
    </style>
  </defs>
  <path id="Jobs-icon" class="cls-1" d="M8495.23,1407.73h17.44a11.414,11.414,0,0,0,11.48-11.41v-26.65a11.446,11.446,0,0,0-11.48-11.41H8474.6a11.421,11.421,0,0,0-11.48,11.41v26.65a11.434,11.434,0,0,0,11.48,11.41h3.77v7.58a3.809,3.809,0,0,0,3.81,3.84h-3.79a13.422,13.422,0,0,0,6.85-2.28l9.16-6.85C8495.49,1409.2,8495.74,1408.35,8495.23,1407.73Zm9.61-22.83h-22.41c-2.24,0-4.06-.85-4.06-1.9s1.82-1.9,4.06-1.9h22.41c2.24,0,4.05.85,4.05,1.9s-1.81,1.9-4.05,1.9h0Zm-6.62,7.61h-16.8c-1.68,0-3.05-.85-3.05-1.9s1.37-1.9,3.05-1.9h16.8c1.68,0,3.04.85,3.04,1.9s-1.36,1.9-3.04,1.9h0Zm7.53-15.22h-24.23c-1.74,0-3.15-.85-3.15-1.9s1.41-1.91,3.15-1.91h24.23c1.74,0,3.14.86,3.14,1.91s-1.4,1.9-3.14,1.9h0Z" transform="translate(-8463.13 -1358.25)"/>
</svg>
