<svg xmlns="http://www.w3.org/2000/svg" width="61.03" height="53.29" viewBox="0 0 61.03 53.29">
  <metadata><?xpacket begin="﻿" id="W5M0MpCehiHzreSzNTczkc9d"?>
<x:xmpmeta xmlns:x="adobe:ns:meta/" x:xmptk="Adobe XMP Core 5.6-c142 79.160924, 2017/07/13-01:06:39        ">
   <rdf:RDF xmlns:rdf="http://www.w3.org/1999/02/22-rdf-syntax-ns#">
      <rdf:Description rdf:about=""/>
   </rdf:RDF>
</x:xmpmeta>
                                                                                                    
                                                                                                    
                                                                                                    
                                                                                                    
                                                                                                    
                                                                                                    
                                                                                                    
                                                                                                    
                                                                                                    
                                                                                                    
                                                                                                    
                                                                                                    
                                                                                                    
                                                                                                    
                                                                                                    
                                                                                                    
                                                                                                    
                                                                                                    
                                                                                                    
                                                                                                    
                           
<?xpacket end="w"?></metadata>
<defs>
    <style>
      .cls-1 {
        fill: #fff;
        fill-rule: evenodd;
      }
    </style>
  </defs>
  <path id="Market-icon" class="cls-1" d="M8474.56,1222.62h38.15c-0.8,0,0-.76,0,0v-41.86c0-.26-0.81-1.02,0,0h-3.82c-0.52-1.02-.92-1.4,0,0v-3.81c-0.92-4.33-4.37-7.61-7.63-7.61h-15.25c-3.28,0-6.74,3.28-7.64,7.61v3.81c0.9-1.4.5-1.02,0,0h-3.81c0.81-1.02,0-.26,0,0v41.86c0-.76.8,0,0,0h0Zm14.5-49.47h9.15c2.09,0,3.05.74,3.05,0v3.8c0-.25-0.32,0,0,0h-15.25c0.32,0,0-.25,0,0v-3.8c0,0.74.96,0,3.05,0h0Zm-18.31,7.61v41.86c0-.74-0.7,0,0,0h-3.82a3.907,3.907,0,0,1-3.81-3.8v-34.25a3.909,3.909,0,0,1,3.81-3.81h3.82c-0.7,0,0,.75,0,0h0Zm45.77,0h3.82a3.909,3.909,0,0,1,3.81,3.81v34.25a3.907,3.907,0,0,1-3.81,3.8h-3.82c0.7,0,0-.74,0,0v-41.86c0,0.75.7,0,0,0h0Z" transform="translate(-8463.13 -1169.34)"/>
</svg>
