<svg xmlns="http://www.w3.org/2000/svg" xmlns:xlink="http://www.w3.org/1999/xlink" width="61.78" height="55.594" viewBox="0 0 61.78 55.594">
  <metadata><?xpacket begin="﻿" id="W5M0MpCehiHzreSzNTczkc9d"?>
<x:xmpmeta xmlns:x="adobe:ns:meta/" x:xmptk="Adobe XMP Core 5.6-c142 79.160924, 2017/07/13-01:06:39        ">
   <rdf:RDF xmlns:rdf="http://www.w3.org/1999/02/22-rdf-syntax-ns#">
      <rdf:Description rdf:about=""/>
   </rdf:RDF>
</x:xmpmeta>
                                                                                                    
                                                                                                    
                                                                                                    
                                                                                                    
                                                                                                    
                                                                                                    
                                                                                                    
                                                                                                    
                                                                                                    
                                                                                                    
                                                                                                    
                                                                                                    
                                                                                                    
                                                                                                    
                                                                                                    
                                                                                                    
                                                                                                    
                                                                                                    
                                                                                                    
                                                                                                    
                           
<?xpacket end="w"?></metadata>
<defs>
    <style>
      .cls-1 {
        fill: #fff;
        fill-rule: evenodd;
        filter: url(#filter);
      }
    </style>
    <filter id="filter" x="8462.94" y="776.094" width="61.78" height="55.594" filterUnits="userSpaceOnUse">
      <feFlood result="flood" flood-color="#354052"/>
      <feComposite result="composite" operator="in" in2="SourceGraphic"/>
      <feBlend result="blend" in2="SourceGraphic"/>
    </filter>
  </defs>
  <path id="Ratings-icon" class="cls-1" d="M8496.68,777.983l5.08,14.545c0.56,1.611,1.5,3.468,3.32,3.468h15.26c2.85,0,5.88,2.636,3.56,4.2l-13.29,8.99a3.756,3.756,0,0,0-1.51,4.368l5.07,14.545c0.88,2.528-2.23,4.633-4.54,3.07l-13.28-8.99a4.461,4.461,0,0,0-4.94,0l-13.28,8.99c-2.31,1.563-5.42-.542-4.54-3.07l5.08-14.545a3.766,3.766,0,0,0-1.53-4.368l-13.29-8.99c-2.31-1.564.22-4.2,3.08-4.2h15.26c1.82,0,3.25-1.857,3.81-3.468l5.07-14.545a3.022,3.022,0,0,1,5.61,0" transform="translate(-8462.94 -776.094)"/>
</svg>
