<svg xmlns="http://www.w3.org/2000/svg" width="61.03" height="60.91" viewBox="0 0 61.03 60.91">
  <metadata><?xpacket begin="﻿" id="W5M0MpCehiHzreSzNTczkc9d"?>
<x:xmpmeta xmlns:x="adobe:ns:meta/" x:xmptk="Adobe XMP Core 5.6-c142 79.160924, 2017/07/13-01:06:39        ">
   <rdf:RDF xmlns:rdf="http://www.w3.org/1999/02/22-rdf-syntax-ns#">
      <rdf:Description rdf:about=""/>
   </rdf:RDF>
</x:xmpmeta>
                                                                                                    
                                                                                                    
                                                                                                    
                                                                                                    
                                                                                                    
                                                                                                    
                                                                                                    
                                                                                                    
                                                                                                    
                                                                                                    
                                                                                                    
                                                                                                    
                                                                                                    
                                                                                                    
                                                                                                    
                                                                                                    
                                                                                                    
                                                                                                    
                                                                                                    
                                                                                                    
                           
<?xpacket end="w"?></metadata>
<defs>
    <style>
      .cls-1 {
        fill: #fff;
        fill-rule: evenodd;
      }
    </style>
  </defs>
  <path id="Support-icon" class="cls-1" d="M8493.64,1554.11a30.445,30.445,0,1,0,30.51,30.44,30.478,30.478,0,0,0-30.51-30.44h0Zm6.63,10.39,0.51-1.85a3.018,3.018,0,0,1,4.16-1.95,26.635,26.635,0,0,1,12.64,12.61,2.994,2.994,0,0,1-2.05,4.16l-1.88.45a2.834,2.834,0,0,1-3.22-1.45,18.777,18.777,0,0,0-8.7-8.66,2.827,2.827,0,0,1-1.46-3.31h0Zm-30.57,8.78a26.506,26.506,0,0,1,12.64-12.61,3.007,3.007,0,0,1,4.17,2.04l0.45,1.89a2.814,2.814,0,0,1-1.46,3.2,18.776,18.776,0,0,0-8.68,8.68,2.838,2.838,0,0,1-3.31,1.46l-1.87-.52a2.994,2.994,0,0,1-1.94-4.14h0Zm17.27,31.35-0.51,1.86a3.015,3.015,0,0,1-4.16,1.95,26.635,26.635,0,0,1-12.64-12.61,3,3,0,0,1,2.05-4.16l1.89-.46a2.833,2.833,0,0,1,3.21,1.46,18.707,18.707,0,0,0,8.71,8.66,2.825,2.825,0,0,1,1.45,3.3h0Zm-7.91-20.03a14.625,14.625,0,1,1,14.63,14.59,14.606,14.606,0,0,1-14.63-14.59h0Zm38.48,11.26a26.529,26.529,0,0,1-12.63,12.61,3,3,0,0,1-4.17-2.04l-0.46-1.89a2.814,2.814,0,0,1,1.46-3.2,18.773,18.773,0,0,0,8.69-8.69,2.816,2.816,0,0,1,3.31-1.44l1.86,0.5a3,3,0,0,1,1.94,4.15h0Z" transform="translate(-8463.13 -1554.09)"/>
</svg>
