<?xml version="1.0"?>
<svg xmlns="http://www.w3.org/2000/svg" height="512px" viewBox="-31 0 479 480" width="512px"><g><link xmlns="" type="text/css" id="dark-mode" rel="stylesheet" class="active-path" style="fill:#FDFCFC" data-old_color="#FCFAFA"/><style xmlns="" type="text/css" id="dark-mode-custom-style" class="active-path" style="fill:#FDFCFC" data-old_color="#FCFAFA"/><path d="m152.5 104c-4.417969 0-8 3.582031-8 8v40h-24c-4.417969 0-8 3.582031-8 8v208c0 4.417969 3.582031 8 8 8h24v32c0 4.417969 3.582031 8 8 8s8-3.582031 8-8v-32h24c4.417969 0 8-3.582031 8-8v-208c0-4.417969-3.582031-8-8-8h-24v-40c0-4.417969-3.582031-8-8-8zm24 64v192h-48v-192zm0 0" data-original="#000000" class="active-path" data-old_color="#FCFAFA" fill="#FDFCFC"/><path d="m264.5 72c-4.417969 0-8 3.582031-8 8v40h-24c-4.417969 0-8 3.582031-8 8v208c0 4.417969 3.582031 8 8 8h24v32c0 4.417969 3.582031 8 8 8s8-3.582031 8-8v-32h24c4.417969 0 8-3.582031 8-8v-208c0-4.417969-3.582031-8-8-8h-24v-40c0-4.417969-3.582031-8-8-8zm24 64v192h-48v-192zm0 0" data-original="#000000" class="active-path" data-old_color="#FCFAFA" fill="#FDFCFC"/><path d="m376.5 168c-4.417969 0-8 3.582031-8 8v40h-24c-4.417969 0-8 3.582031-8 8v208c0 4.417969 3.582031 8 8 8h24v32c0 4.417969 3.582031 8 8 8s8-3.582031 8-8v-32h24c4.417969 0 8-3.582031 8-8v-208c0-4.417969-3.582031-8-8-8h-24v-40c0-4.417969-3.582031-8-8-8zm24 64v192h-48v-192zm0 0" data-original="#000000" class="active-path" data-old_color="#FCFAFA" fill="#FDFCFC"/><path d="m40.5 0c-4.417969 0-8 3.582031-8 8v40h-24c-4.417969 0-8 3.582031-8 8v208c0 4.417969 3.582031 8 8 8h24v32c0 4.417969 3.582031 8 8 8s8-3.582031 8-8v-32h24c4.417969 0 8-3.582031 8-8v-208c0-4.417969-3.582031-8-8-8h-24v-40c0-4.417969-3.582031-8-8-8zm24 64v192h-48v-192zm0 0" data-original="#000000" class="active-path" data-old_color="#FCFAFA" fill="#FDFCFC"/></g> </svg>