<svg xmlns="http://www.w3.org/2000/svg" viewBox="0 0 48 48" enable-background="new 0 0 48 48"><style type="text/css">.st0{display:none;} .st1{fill:none;stroke:#080808;stroke-width:2;stroke-linecap:round;stroke-miterlimit:10;} .st2{fill:none;stroke:#080808;stroke-width:2;stroke-linecap:round;stroke-linejoin:round;stroke-miterlimit:10;}</style><g id="locate-network"><path class="st1" d="M19.2 15.9c-1.6-1.6-1.6-4.1 0-5.7M28.8 10.3c1.6 1.6 1.6 4.1 0 5.7M15.9 19.2c-3.4-3.4-3.4-8.8 0-12.2M32.1 7c3.4 3.4 3.4 8.8 0 12.2M12.8 22.3c-5.1-5.1-5.1-13.3 0-18.4M35.2 3.9c5.1 5.1 5.1 13.3 0 18.4"/><path class="st2" d="M24 11.1l-12 33h24zM36 44.1l-20-8 14-8-10-6"/></g></svg>