<svg xmlns="http://www.w3.org/2000/svg" xmlns:xlink="http://www.w3.org/1999/xlink" viewBox="0 0 300 300" enable-background="new 0 0 300 300"><style type="text/css">.st0{clip-path:url(#SVGID_2_);} .st1{opacity:0.19;enable-background:new ;}</style><g id="Layer_1-2"><path d="M69.8 279.5c-.9 0-1.6-.7-1.6-1.6v-15.7c0-.9.7-1.6 1.6-1.6h5.1c4.2 0 5.8 2.3 5.8 4.9.1 1.6-.7 3-2.1 3.8 2.1.8 2.9 2.3 2.9 4.5 0 3.4-2.1 5.7-6.1 5.7h-5.6zm1.6-11.2h3.5c1.8 0 2.5-1 2.5-2.4s-.7-2.4-2.5-2.4h-3.4l-.1 4.8zm0 8.3h3.9c2 0 2.8-1.1 2.8-2.8.2-1.4-.8-2.6-2.2-2.8h-4.5v5.6zm21.2-3.4v-11.3c0-.9.7-1.6 1.6-1.6s1.6.7 1.6 1.6v11.3c0 1.7.6 3.7 3.8 3.7 3.2 0 3.8-2 3.8-3.7v-11.3c0-.9.7-1.6 1.6-1.6.9 0 1.6.7 1.6 1.6v11.3c0 3.2-1.4 6.6-7.1 6.6s-6.9-3.3-6.9-6.6zm35.7 3.2c.8 0 1.5.7 1.5 1.5s-.7 1.5-1.5 1.5h-8.3c-.9 0-1.6-.6-1.6-1.5v-16c0-.9.7-1.6 1.6-1.6s1.6.7 1.6 1.6v14.5h6.7zm19.9-9.5l-3.2 11.5c-.2.7-.8 1.2-1.6 1.2-.7 0-1.3-.4-1.6-1.1l-4.8-16.1c-.1-.2-.1-.3-.1-.5 0-.9.7-1.6 1.6-1.6.7 0 1.3.4 1.6 1.1l3.3 11.8 3.2-11.8c.3-.9 1.2-1.4 2-1.1.5.2 1 .6 1.1 1.1l3.2 11.8 3.3-11.8c.2-.7.8-1.1 1.5-1.1.9 0 1.6.7 1.6 1.6 0 .2 0 .3-.1.5l-4.8 16.1c-.2.7-.8 1.1-1.6 1.1s-1.4-.5-1.6-1.2l-3-11.5zm23.5 7.6l-1.7 4.1c-.2.6-.8 1.1-1.5 1.1-.9 0-1.6-.7-1.6-1.6 0-.2 0-.4.1-.6l6.6-16.2c.3-.8 1.2-1.2 2.1-.9.4.2.8.5.9.9l6.6 16.2c.1.2.1.4.1.6 0 .9-.7 1.6-1.6 1.6-.7 0-1.3-.4-1.5-1.1l-1.7-4.1h-6.8zm3.4-8.9l-2.3 5.9h4.6l-2.3-5.9zm22.2 6.6v5.9c0 .9-.7 1.6-1.6 1.6s-1.6-.7-1.6-1.6v-15.9c0-.9.7-1.6 1.6-1.6h5.4c3.1-.2 5.8 2.2 5.9 5.3v.5c0 2.7-1.6 5.3-4.3 5.6l4.2 5.1c.2.3.3.6.3 1 0 .9-.7 1.6-1.6 1.6-.5 0-1-.2-1.3-.6l-5.1-6.9h-1.9zm0-8.8v5.9h3.8c1.8 0 2.5-1.4 2.5-2.9s-.8-3-2.6-3h-3.7zm24.2 4.9l6.8-7.5c.6-.6 1.6-.7 2.3-.1.3.3.5.7.5 1.1 0 .4-.1.8-.4 1.1l-5.3 5.7 6.2 8.5c.2.3.3.6.3.9 0 .9-.7 1.6-1.6 1.6-.5 0-1-.3-1.3-.7l-5.8-8-1.6 1.7v5.4c0 .9-.7 1.6-1.6 1.6-.9 0-1.6-.7-1.6-1.6v-16.2c0-.9.7-1.6 1.6-1.6.9 0 1.6.7 1.6 1.6l-.1 6.5zm-151.7 11.2c-.9 0-1.6-.7-1.6-1.6v-15.7c0-.9.7-1.6 1.6-1.6h5.1c4.2 0 5.8 2.3 5.8 4.9.1 1.6-.7 3-2.1 3.8 2.1.8 2.9 2.3 2.9 4.5 0 3.4-2.1 5.7-6.1 5.7h-5.6zm1.6-11.2h3.5c1.8 0 2.5-1 2.5-2.4s-.7-2.4-2.5-2.4h-3.4l-.1 4.8zm0 8.3h3.9c2 0 2.8-1.1 2.8-2.8.2-1.4-.8-2.6-2.2-2.8h-4.5v5.6zm21.2-3.4v-11.3c0-.9.7-1.6 1.6-1.6s1.6.7 1.6 1.6v11.3c0 1.7.6 3.7 3.8 3.7 3.2 0 3.8-2 3.8-3.7v-11.3c0-.9.7-1.6 1.6-1.6.9 0 1.6.7 1.6 1.6v11.3c0 3.2-1.4 6.6-7.1 6.6s-6.9-3.3-6.9-6.6zm35.7 3.2c.8 0 1.5.7 1.5 1.5s-.7 1.5-1.5 1.5h-8.3c-.9 0-1.6-.6-1.6-1.5v-16c0-.9.7-1.6 1.6-1.6s1.6.7 1.6 1.6v14.5h6.7zm19.9-9.5l-3.2 11.5c-.2.7-.8 1.2-1.6 1.2-.7 0-1.3-.4-1.6-1.1l-4.8-16.1c-.1-.2-.1-.3-.1-.5 0-.9.7-1.6 1.6-1.6.7 0 1.3.4 1.6 1.1l3.3 11.8 3.2-11.8c.3-.9 1.2-1.4 2-1.1.5.2 1 .6 1.1 1.1l3.2 11.8 3.3-11.8c.2-.7.8-1.1 1.5-1.1.9 0 1.6.7 1.6 1.6 0 .2 0 .3-.1.5l-4.8 16.1c-.2.7-.8 1.1-1.6 1.1s-1.4-.5-1.6-1.2l-3-11.5zm23.5 7.6l-1.7 4.1c-.2.6-.8 1.1-1.5 1.1-.9 0-1.6-.7-1.6-1.6 0-.2 0-.4.1-.6l6.6-16.2c.3-.8 1.2-1.2 2.1-.9.4.2.8.5.9.9l6.6 16.2c.1.2.1.4.1.6 0 .9-.7 1.6-1.6 1.6-.7 0-1.3-.4-1.5-1.1l-1.7-4.1h-6.8zm3.4-8.9l-2.3 5.9h4.6l-2.3-5.9zm22.2 6.6v5.9c0 .9-.7 1.6-1.6 1.6s-1.6-.7-1.6-1.6v-15.9c0-.9.7-1.6 1.6-1.6h5.4c3.1-.2 5.8 2.2 5.9 5.3v.5c0 2.7-1.6 5.3-4.3 5.6l4.2 5.1c.2.3.3.6.3 1 0 .9-.7 1.6-1.6 1.6-.5 0-1-.2-1.3-.6l-5.1-6.9h-1.9zm0-8.8v5.9h3.8c1.7 0 2.5-1.4 2.5-2.9s-.8-3-2.6-3h-3.7zm24.2 4.9l6.8-7.5c.6-.6 1.6-.7 2.3-.1.3.3.5.7.5 1.1 0 .4-.1.8-.4 1.1l-5.3 5.7 6.2 8.5c.2.3.3.6.3.9 0 .9-.7 1.6-1.6 1.6-.5 0-1-.3-1.3-.7l-5.8-8-1.6 1.7v5.4c0 .9-.7 1.6-1.6 1.6-.9 0-1.6-.7-1.6-1.6v-16.2c0-.9.7-1.6 1.6-1.6.9 0 1.6.7 1.6 1.6l-.1 6.5zm-126.5 24.4c0-2.2 1-3.2 2.8-3.2.8-.1 1.7.3 2.2 1 .1.1.1.2.1.3 0 .3-.2.5-.5.5-.1 0-.3-.1-.4-.2-.3-.4-.9-.7-1.4-.6-1.2 0-1.8.7-1.8 2.2s.5 2.2 1.8 2.2c.6 0 1.1-.2 1.5-.6.1-.1.2-.2.4-.2.3 0 .5.2.5.5 0 .1 0 .2-.1.3-.6.7-1.4 1-2.3 1-1.7 0-2.8-1-2.8-3.2zm9.8.7v1.9c0 .3-.2.6-.5.6s-.6-.2-.6-.5v-5.2c0-.3.2-.5.5-.5h1.7c1-.1 1.9.7 1.9 1.7v.2c.1.9-.5 1.6-1.4 1.8l1.3 1.6c.1.1.1.2.1.3 0 .3-.2.5-.5.5-.2 0-.3-.1-.4-.2l-1.7-2.2h-.4zm0-2.8v1.9h1.2c.5-.1.9-.6.8-1.1-.1-.4-.4-.7-.8-.8h-1.2zm8.8 1.4l1.4-2.2c.1-.2.3-.3.4-.2.3 0 .5.2.5.5 0 .1 0 .2-.1.3l-1.7 2.6v2.3c0 .3-.2.6-.5.6s-.6-.2-.6-.5v-2.4l-1.7-2.6c-.1-.1-.1-.2-.1-.3 0-.3.2-.5.5-.5.2 0 .4.1.4.2l1.5 2.2zm6.8 1.4v1.9c0 .3-.2.6-.5.6s-.6-.2-.6-.5v-5.2c0-.3.2-.5.5-.5h1.7c1-.1 1.9.7 2 1.7s-.7 1.9-1.7 2h-1.4zm0-2.8v1.8h1.1c.5 0 .9-.4.9-.9s-.4-.9-.9-.9h-1.1zm9.2 0v4.7c0 .3-.2.5-.5.5s-.5-.2-.5-.5v-4.7h-1.4c-.3 0-.5-.2-.5-.5s.2-.5.5-.5h3.8c.3 0 .5.2.5.5s-.2.5-.5.5h-1.4zm4.8 2.1c0-2.2 1-3.2 2.9-3.2s2.9 1 2.9 3.2-1 3.2-2.9 3.2-2.9-1.1-2.9-3.2zm1.1 0c0 1.5.6 2.2 1.8 2.2s1.8-.7 1.8-2.2c0-1.5-.6-2.2-1.8-2.2s-1.8.7-1.8 2.2zm8 0c0-2.2 1-3.2 2.8-3.2.8-.1 1.7.3 2.2 1 .1.1.1.2.1.3 0 .3-.2.5-.5.5-.1 0-.3-.1-.4-.2-.3-.4-.9-.7-1.4-.6-1.2 0-1.8.7-1.8 2.2s.5 2.2 1.8 2.2c.6 0 1.1-.2 1.5-.6.1-.1.2-.2.4-.2.3 0 .5.2.5.5 0 .1 0 .2-.1.3-.6.7-1.4 1-2.3 1-1.7 0-2.8-1-2.8-3.2zm8.8 1v-3.7c0-.3.2-.5.5-.5s.5.2.5.5v3.7c.1.7.7 1.2 1.3 1.1.6 0 1.1-.5 1.1-1.1v-3.7c0-.3.2-.6.5-.6s.6.2.6.5v3.8c0 1-.4 2.1-2.3 2.1-1.8.1-2.2-1-2.2-2.1zm9.4-.3v1.9c0 .3-.2.6-.5.6s-.6-.2-.6-.5v-5.2c0-.3.2-.5.5-.5h1.7c1-.1 1.9.7 1.9 1.7v.2c.1.9-.5 1.6-1.4 1.8l1.3 1.6c.1.1.1.2.1.3 0 .3-.2.5-.5.5-.2 0-.3-.1-.4-.2l-1.7-2.2h-.4zm0-2.8v1.9h1.2c.5-.1.9-.6.8-1.1-.1-.4-.4-.7-.8-.8h-1.2zm7.8 2.8v1.9c0 .3-.2.5-.5.5s-.5-.2-.5-.5v-5.1c0-.3.2-.5.5-.5h1.7c1-.1 1.9.7 1.9 1.7v.2c.1.9-.5 1.6-1.4 1.8l1.3 1.6c.1.1.1.2.1.3 0 .3-.2.5-.5.5-.2 0-.3-.1-.4-.2l-1.6-2.2h-.6zm0-2.8v1.9h1.2c.5-.1.9-.6.8-1.1-.1-.4-.4-.7-.8-.8h-1.2zm7.8 1.6h1.7c.3 0 .5.2.5.5s-.2.5-.5.5h-1.7v1.7h2.4c.3 0 .5.2.5.5s-.2.5-.5.5h-2.9c-.3 0-.5-.2-.5-.5v-5.1c0-.3.2-.5.5-.5h2.8c.3 0 .5.2.5.5s-.2.5-.5.5h-2.3v1.4zm11-2.1v5.2c0 .3-.2.5-.5.5-.2 0-.3-.1-.4-.2l-2.7-3.9v3.6c0 .3-.2.5-.5.5s-.5-.2-.5-.5v-5.2c0-.3.2-.5.5-.5.2 0 .3.1.4.2l2.7 3.9v-3.6c0-.3.2-.5.5-.5s.5.2.5.5zm3.5 2.6c0-2.2 1-3.2 2.8-3.2.8-.1 1.7.3 2.2 1 .1.1.1.2.1.3 0 .3-.2.5-.5.5-.1 0-.3-.1-.4-.2-.3-.4-.9-.7-1.4-.6-1.2 0-1.8.7-1.8 2.2s.5 2.2 1.8 2.2c.6 0 1.1-.2 1.5-.6.1-.1.2-.2.4-.2.3 0 .5.2.5.5 0 .1 0 .2-.1.3-.6.7-1.4 1-2.3 1-1.7 0-2.8-1-2.8-3.2zm10.8-.7l1.4-2.2c.1-.2.3-.3.4-.2.3 0 .5.2.5.5 0 .1 0 .2-.1.3l-1.7 2.6v2.3c0 .3-.2.6-.5.6s-.6-.2-.6-.5v-2.4l-1.7-2.6c-.1-.1-.1-.2-.1-.3 0-.3.2-.5.5-.5.2 0 .4.1.4.2l1.5 2.2zm35.1-261.1l-7.7-2.4c-3.4-1.1-7.2-.5-10.1 1.6-3 2.2-4.8 5.7-4.9 9.4l-.4-.1v-6.9c0-5.2-3.4-9.9-8.4-11.4l-7.6-2.3c-3.4-1-7.1-.4-10 1.7-3 2.2-4.8 5.7-4.9 9.5v2.8l-3.6-.8v-10.3c.1-5.2-3.3-9.9-8.2-11.4l-18.5-5.8c-2.2-.7-4.5-.7-6.7 0l-18.5 5.7c-5 1.6-8.3 6.2-8.3 11.4v10.3l-3.6.7v-2.8c0-3.7-1.8-7.2-4.8-9.5-2.9-2.1-6.5-2.8-10-1.8l-7.5 2.3c-5 1.5-8.4 6.2-8.4 11.4v6.9l-.4.1c-.1-3.7-1.8-7.2-4.8-9.4-2.9-2.2-6.6-2.8-10.1-1.7l-7.7 2.4c-5 1.5-8.4 6.1-8.3 11.3l-.1 58.2-.2 61.3c0 4.1 2 7.9 5.4 10.1l84.1 54.6c3.8 2.4 8.6 2.4 12.4 0l84.4-54.2c3.4-2.2 5.5-6 5.4-10.1l.1-57.5.2-61.9c0-5.2-3.3-9.8-8.3-11.4zm-88 182.2l-81.5-53 .3-116.8 2.7-.8c.1 3.4 1.7 6.6 4.4 8.8 2.7 2.2 6.1 3 9.5 2.3l5.4-1.1c5.4-1.2 9.3-6.1 9.3-11.7v-7l2.6-.8v2.6c0 3.6 1.7 7 4.5 9.2 2.7 2.1 6.1 3 9.5 2.3l8.6-1.8c5.5-1.2 9.3-6.1 9.3-11.6v-10.5l16-4.9 16 5v10.5c-.1 5.6 3.8 10.5 9.2 11.7l8.6 1.8c3.3.7 6.8-.1 9.5-2.2 2.8-2.2 4.4-5.6 4.5-9.2v-2.5l2.6.8v7c0 5.6 3.8 10.4 9.2 11.7l5.4 1.2c3.4.7 6.8-.1 9.5-2.3 2.7-2.2 4.3-5.4 4.4-8.8l2.7.8-.3 115.6-81.9 53.7z"/><defs><path id="SVGID_1_" d="M237.7 30.9l-7.7-2.4c-3.4-1.1-7.2-.5-10.1 1.6-3 2.2-4.8 5.7-4.9 9.4l-.4-.1v-6.9c0-5.2-3.4-9.9-8.4-11.4l-7.6-2.3c-3.4-1-7.1-.4-10 1.7-3 2.2-4.8 5.7-4.9 9.5v2.8l-3.6-.8v-10.3c.1-5.2-3.3-9.9-8.2-11.4l-18.5-5.8c-2.2-.7-4.5-.7-6.7 0l-18.5 5.7c-5 1.6-8.3 6.2-8.3 11.4v10.3l-3.6.7v-2.8c0-3.7-1.8-7.2-4.8-9.5-2.9-2.1-6.5-2.8-10-1.8l-7.5 2.3c-5 1.5-8.4 6.2-8.4 11.4v6.9l-.4.1c-.1-3.7-1.8-7.2-4.8-9.4-2.9-2.2-6.6-2.8-10.1-1.7l-7.7 2.4c-5 1.5-8.4 6.1-8.3 11.3l-.1 58.2-.2 61.3c0 4.1 2 7.9 5.4 10.1l84.1 54.6c3.8 2.4 8.6 2.4 12.4 0l84.4-54.2c3.4-2.2 5.5-6 5.4-10.1l.1-57.5.2-61.9c0-5.2-3.3-9.8-8.3-11.4zm-88 182.2l-81.5-53 .3-116.8 2.7-.8c.1 3.4 1.7 6.6 4.4 8.8 2.7 2.2 6.1 3 9.5 2.3l5.4-1.1c5.4-1.2 9.3-6.1 9.3-11.7v-7l2.6-.8v2.6c0 3.6 1.7 7 4.5 9.2 2.7 2.1 6.1 3 9.5 2.3l8.6-1.8c5.5-1.2 9.3-6.1 9.3-11.6v-10.5l16-4.9 16 5v10.5c-.1 5.6 3.8 10.5 9.2 11.7l8.6 1.8c3.3.7 6.8-.1 9.5-2.2 2.8-2.2 4.4-5.6 4.5-9.2v-2.5l2.6.8v7c0 5.6 3.8 10.4 9.2 11.7l5.4 1.2c3.4.7 6.8-.1 9.5-2.3 2.7-2.2 4.3-5.4 4.4-8.8l2.7.8-.3 115.6-81.9 53.7z"/></defs><clipPath id="SVGID_2_"><use xlink:href="#SVGID_1_" overflow="visible"/></clipPath><g class="st0"><path d="M237.8 30.9l-7.7-2.4c-3.4-1.1-7.2-.5-10.1 1.6-3 2.2-4.8 5.7-4.9 9.4l-.4-.1v-6.9c0-5.2-3.4-9.9-8.4-11.4l-7.6-2.2c-3.4-1-7.1-.4-10 1.7-3 2.2-4.8 5.7-4.9 9.5v2.8l-3.6-.8.1-10.3c.1-5.2-3.3-9.9-8.2-11.4l-18.5-5.8c-2.2-.7-4.5-.7-6.7 0l-18.5 5.7c-5 1.6-8.3 6.2-8.3 11.4v10.3l-3.6.7v-2.8c0-3.7-1.8-7.2-4.8-9.5-2.9-2.1-6.5-2.8-10-1.8l-7.6 2.2c-5 1.5-8.4 6.2-8.4 11.4v6.9l-.4.1c-.1-3.7-1.8-7.2-4.8-9.4-2.9-2.2-6.6-2.8-10.1-1.7l-7.7 2.4c-5 1.5-8.4 6.1-8.3 11.3l-.2 58.2c.1-37.4 14.2-56.6 14.2-56.6l2.7-.8c.1 3.4 1.7 6.6 4.4 8.8 2.7 2.2 6.1 3 9.5 2.3l5.4-1.1c5.4-1.2 9.3-6.1 9.3-11.6v-7l2.6-.8v2.6c0 3.6 1.7 7 4.5 9.2 2.7 2.1 6.1 3 9.5 2.3l8.6-1.8c5.5-1.2 9.3-6.1 9.3-11.6v-10.7l16-4.9 16 5v10.5c-.1 5.6 3.8 10.5 9.2 11.7l8.6 1.8c3.3.7 6.8-.1 9.5-2.2 2.8-2.2 4.5-5.6 4.6-9.2v-2.5l2.6.8v7c0 5.6 3.8 10.4 9.2 11.7l5.4 1.2c3.4.7 6.8-.1 9.5-2.3 2.7-2.2 4.3-5.4 4.4-8.8l2.7.8-.3 116.8s14.2-19 14.3-56.4l.2-61.9c-.1-5.2-3.4-9.8-8.3-11.4zm-88 182.2l-81.5-53 .2-116.8s-14.1 19.3-14.2 56.6l-.1 61.2c0 4.1 2 7.9 5.4 10.1l84.1 54.6c3.8 2.4 8.6 2.4 12.4 0l84.4-54.2c3.4-2.2 5.5-6 5.4-10.1l.1-57.5c-.1 37.4-14.3 55.2-14.3 55.2l-81.9 53.9z"/><circle class="st1" cx="60.8" cy="53.6" r="60.2"/><circle class="st1" cx="239.2" cy="160.6" r="60.2"/></g></g></svg>