<svg xmlns="http://www.w3.org/2000/svg" xmlns:xlink="http://www.w3.org/1999/xlink" viewBox="0 0 440.8 145.7" enable-background="new 0 0 440.8 145.7"><style type="text/css">.st0{fill:#4C4C4C;} .st1{clip-path:url(#SVGID_2_);} .st2{fill:url(#SVGID_3_);} .st3{fill:url(#SVGID_4_);} .st4{filter:url(#Adobe_OpacityMaskFilter);} .st5{fill:url(#SVGID_6_);} .st6{opacity:0.19;mask:url(#SVGID_5_);fill:url(#SVGID_7_);} .st7{filter:url(#Adobe_OpacityMaskFilter_1_);} .st8{fill:url(#SVGID_9_);} .st9{opacity:0.19;mask:url(#SVGID_8_);fill:url(#SVGID_10_);}</style><g id="Layer_1_1_"><path class="st0" d="M172.2 72.5c-1.5 0-2.7-1.2-2.7-2.7v-25.5c0-1.5 1.2-2.7 2.7-2.7h8.3c6.9 0 9.4 3.8 9.4 8 0 3-1.5 5.3-3.4 6.2 3.4 1.3 4.8 3.8 4.8 7.4 0 5.6-3.4 9.3-10 9.3h-9.1zm2.7-18.2h5.6c2.9 0 4.1-1.7 4.1-3.9 0-2.4-1.2-3.9-4.1-3.9h-5.6v7.8zm0 13.5h6.4c3.3 0 4.5-1.7 4.5-4.5s-1.5-4.5-4.5-4.5h-6.4v9zm34.5-5.4v-18.5c0-1.5 1.2-2.7 2.7-2.7s2.7 1.2 2.7 2.7v18.5c0 2.8 1.1 6.1 6.2 6.1 5.2 0 6.2-3.3 6.2-6.1v-18.5c0-1.5 1.2-2.7 2.7-2.7s2.7 1.2 2.7 2.7v18.5c0 5.2-2.3 10.7-11.6 10.7s-11.6-5.4-11.6-10.7zm58.4 5.2c1.5 0 2.6 1.1 2.6 2.5s-1.1 2.5-2.6 2.5h-13.6c-1.5 0-2.6-1.1-2.6-2.6v-26c0-1.5 1.2-2.7 2.7-2.7s2.7 1.2 2.7 2.7v23.6h10.8zm32.4-15.5l-5.2 18.8c-.3 1.1-1.3 2-2.6 2-1.2 0-2.2-.8-2.5-1.8l-7.9-26.3c-.1-.3-.1-.5-.1-.8 0-1.5 1.2-2.7 2.7-2.7 1.5 0 2.3 1.1 2.5 1.8l5.4 19.3 5.2-19.2c.3-1.2 1.4-1.9 2.6-1.9 1.1 0 2.2.7 2.6 1.9l5.2 19.2 5.4-19.3c.2-.8 1.1-1.8 2.5-1.8 1.5 0 2.7 1.2 2.7 2.7 0 .3 0 .6-.1.8l-7.9 26.3c-.3 1.1-1.3 1.8-2.5 1.8s-2.3-.8-2.6-2l-5.4-18.8zm38.4 12.4l-2.8 6.7c-.4 1-1.3 1.7-2.5 1.7-1.4 0-2.6-1.2-2.6-2.6 0-.3 0-.6.2-1l10.8-26.4c.3-.6 1-1.7 2.4-1.7s2.2 1 2.4 1.7l10.8 26.4c.1.3.2.7.2 1 0 1.4-1.2 2.6-2.6 2.6-1.2 0-2.1-.8-2.5-1.7l-2.8-6.7h-11zm5.5-14.5l-3.8 9.6h7.5l-3.7-9.6zm36.2 10.7v9.6c0 1.5-1.2 2.7-2.7 2.7-1.5 0-2.7-1.2-2.7-2.7v-26c0-1.5 1.2-2.7 2.7-2.7h8.8c6.2 0 9.7 4.4 9.7 9.6 0 4.4-2.7 8.6-7.1 9.1l6.8 8.3c.4.6.6 1.1.6 1.6 0 1.5-1.2 2.7-2.7 2.7-.8 0-1.6-.4-2.1-1l-8.4-11.2h-2.9zm0-14.3v9.6h6.2c2.8 0 4.1-2.3 4.1-4.8s-1.2-4.8-4.2-4.8h-6.1zm39.5 8.1l11-12.3c.6-.6 1.2-.9 1.9-.9 1.4 0 2.6 1.1 2.6 2.6 0 .7-.3 1.3-.7 1.7l-8.6 9.4 10.1 13.8c.3.4.5 1 .5 1.5 0 1.4-1.2 2.6-2.6 2.6-1.1 0-1.8-.6-2.2-1.1l-9.5-13.1-2.6 2.8v8.8c0 1.5-1.2 2.7-2.7 2.7-1.5 0-2.7-1.2-2.7-2.7v-26.4c0-1.5 1.2-2.7 2.7-2.7 1.5 0 2.7 1.2 2.7 2.7v10.6zm-247.6 18c-1.5 0-2.7-1.2-2.7-2.7v-25.5c0-1.5 1.2-2.7 2.7-2.7h8.3c6.9 0 9.4 3.8 9.4 8 0 3-1.5 5.3-3.4 6.2 3.4 1.3 4.8 3.8 4.8 7.4 0 5.6-3.4 9.3-10 9.3h-9.1zm2.7-18.2h5.6c2.9 0 4.1-1.7 4.1-3.9 0-2.4-1.2-3.9-4.1-3.9h-5.6v7.8zm0 13.5h6.4c3.3 0 4.5-1.7 4.5-4.5s-1.5-4.5-4.5-4.5h-6.4v9zm34.5-5.4v-18.5c0-1.5 1.2-2.7 2.7-2.7 1.5 0 2.7 1.2 2.7 2.7v18.5c0 2.8 1.1 6.1 6.2 6.1 5.2 0 6.2-3.3 6.2-6.1v-18.5c0-1.5 1.2-2.7 2.7-2.7s2.7 1.2 2.7 2.7v18.5c0 5.2-2.3 10.7-11.6 10.7s-11.6-5.4-11.6-10.7zm58.4 5.2c1.5 0 2.6 1.1 2.6 2.5s-1.1 2.5-2.6 2.5h-13.6c-1.5 0-2.6-1.1-2.6-2.6v-26c0-1.5 1.2-2.7 2.7-2.7s2.7 1.2 2.7 2.7v23.6h10.8zm32.4-15.5l-5.2 18.8c-.3 1.1-1.3 2-2.6 2-1.2 0-2.2-.8-2.5-1.8l-7.9-26.3c-.1-.3-.1-.5-.1-.8 0-1.5 1.2-2.7 2.7-2.7 1.5 0 2.3 1.1 2.5 1.8l5.4 19.3 5.2-19.2c.3-1.2 1.4-1.9 2.6-1.9 1.1 0 2.2.7 2.6 1.9l5.2 19.2 5.4-19.3c.2-.8 1.1-1.8 2.5-1.8 1.5 0 2.7 1.2 2.7 2.7 0 .3 0 .6-.1.8l-7.9 26.3c-.3 1.1-1.3 1.8-2.5 1.8s-2.3-.8-2.6-2l-5.4-18.8zm38.4 12.4l-2.8 6.7c-.4 1-1.3 1.7-2.5 1.7-1.4 0-2.6-1.2-2.6-2.6 0-.3 0-.6.2-1l10.8-26.4c.3-.6 1-1.7 2.4-1.7s2.2 1 2.4 1.7l10.8 26.4c.1.3.2.7.2 1 0 1.4-1.2 2.6-2.6 2.6-1.2 0-2.1-.8-2.5-1.7l-2.8-6.7h-11zm5.5-14.5l-3.8 9.6h7.5l-3.7-9.6zm36.2 10.7v9.6c0 1.5-1.2 2.7-2.7 2.7-1.5 0-2.7-1.2-2.7-2.7v-26c0-1.5 1.2-2.7 2.7-2.7h8.8c6.2 0 9.7 4.4 9.7 9.6 0 4.4-2.7 8.6-7.1 9.1l6.8 8.3c.4.6.6 1.1.6 1.6 0 1.5-1.2 2.7-2.7 2.7-.8 0-1.6-.4-2.1-1l-8.4-11.2h-2.9zm0-14.3v9.6h6.2c2.8 0 4.1-2.3 4.1-4.8s-1.2-4.8-4.2-4.8h-6.1zm39.5 8.1l11-12.3c.6-.6 1.2-.9 1.9-.9 1.4 0 2.6 1.1 2.6 2.6 0 .7-.3 1.3-.7 1.7l-8.6 9.4 10.1 13.8c.3.4.5 1 .5 1.5 0 1.4-1.2 2.6-2.6 2.6-1.1 0-1.8-.6-2.2-1.1l-9.5-13.1-2.6 2.8v8.8c0 1.5-1.2 2.7-2.7 2.7-1.5 0-2.7-1.2-2.7-2.7v-26.4c0-1.5 1.2-2.7 2.7-2.7 1.5 0 2.7 1.2 2.7 2.7v10.6zm-206.4 39.7c0-3.5 1.7-5.2 4.6-5.2 1.8 0 3 .7 3.6 1.6.1.2.2.3.2.5 0 .4-.4.8-.8.8-.2 0-.4-.1-.6-.3-.6-.7-1.2-1-2.3-1-2 0-2.9 1.2-2.9 3.7 0 2.6.9 3.6 2.9 3.6 1.1 0 1.7-.3 2.4-1 .2-.2.4-.3.6-.3.4 0 .8.4.8.8 0 .2-.1.3-.1.4-.7.9-2.1 1.6-3.7 1.6-3 0-4.7-1.6-4.7-5.2zm16 1.1v3.1c0 .5-.4.9-.9.9s-.9-.4-.9-.9v-8.4c0-.5.4-.9.9-.9h2.8c2 0 3.1 1.4 3.1 3.1 0 1.4-.9 2.8-2.3 2.9l2.2 2.7c.1.2.2.4.2.5 0 .5-.4.9-.9.9-.3 0-.5-.1-.7-.3l-2.7-3.6h-.8zm0-4.6v3.1h2c.9 0 1.3-.8 1.3-1.5 0-.8-.4-1.6-1.4-1.6h-1.9zm14.3 2.3l2.2-3.5c.1-.2.4-.4.7-.4.5 0 .9.4.9.9 0 .2 0 .3-.1.5l-2.8 4.2v3.8c0 .5-.4.9-.9.9s-.9-.4-.9-.9v-3.8l-2.8-4.2c-.1-.1-.1-.3-.1-.5 0-.5.4-.9.9-.9.3 0 .6.1.7.4l2.2 3.5zm11.1 2.3v3.1c0 .5-.4.9-.9.9s-.9-.4-.9-.9v-8.4c0-.5.4-.9.9-.9h2.8c1.7 0 3.1 1 3.1 3s-1.3 3.1-3.1 3.1h-1.9zm0-4.6v3h1.8c.9 0 1.5-.5 1.5-1.5s-.6-1.5-1.5-1.5h-1.8zm15.1 0v7.7c0 .5-.4.9-.9.9s-.9-.4-.9-.9v-7.7h-2.3c-.4 0-.8-.3-.8-.8 0-.4.3-.8.8-.8h6.3c.4 0 .8.3.8.8 0 .4-.3.8-.8.8h-2.2zm7.8 3.5c0-3.5 1.7-5.2 4.7-5.2s4.7 1.7 4.7 5.2-1.7 5.2-4.7 5.2-4.7-1.7-4.7-5.2zm1.8 0c0 2.4 1 3.6 2.9 3.6s2.9-1.2 2.9-3.6c0-2.5-1-3.7-2.9-3.7s-2.9 1.2-2.9 3.7zm13.1 0c0-3.5 1.7-5.2 4.6-5.2 1.8 0 3 .7 3.6 1.6.1.2.2.3.2.5 0 .4-.4.8-.8.8-.2 0-.4-.1-.6-.3-.6-.7-1.2-1-2.3-1-2 0-2.9 1.2-2.9 3.7 0 2.6.9 3.6 2.9 3.6 1.1 0 1.7-.3 2.4-1 .2-.2.4-.3.6-.3.4 0 .8.4.8.8 0 .2-.1.3-.1.4-.7.9-2.1 1.6-3.7 1.6-3.1 0-4.7-1.6-4.7-5.2zm14.3 1.7v-6c0-.5.4-.9.9-.9s.9.4.9.9v6c0 .9.3 2 2 2s2-1.1 2-2v-6c0-.5.4-.9.9-.9s.9.4.9.9v6c0 1.7-.7 3.5-3.7 3.5-3.2 0-3.9-1.8-3.9-3.5zm15.3-.6v3.1c0 .5-.4.9-.9.9s-.9-.4-.9-.9v-8.4c0-.5.4-.9.9-.9h2.8c2 0 3.1 1.4 3.1 3.1 0 1.4-.9 2.8-2.3 2.9l2.2 2.7c.1.2.2.4.2.5 0 .5-.4.9-.9.9-.3 0-.5-.1-.7-.3l-2.7-3.6h-.8zm0-4.6v3.1h2c.9 0 1.3-.8 1.3-1.5 0-.8-.4-1.6-1.4-1.6h-1.9zm12.7 4.6v3.1c0 .5-.4.9-.9.9s-.9-.4-.9-.9v-8.4c0-.5.4-.9.9-.9h2.8c2 0 3.1 1.4 3.1 3.1 0 1.4-.9 2.8-2.3 2.9l2.2 2.7c.1.2.2.4.2.5 0 .5-.4.9-.9.9-.3 0-.5-.1-.7-.3l-2.7-3.6h-.8zm0-4.6v3.1h2c.9 0 1.3-.8 1.3-1.5 0-.8-.4-1.6-1.4-1.6h-1.9zm12.8 2.7h2.8c.4 0 .8.3.8.8 0 .4-.3.8-.8.8h-2.8v2.7h3.9c.4 0 .8.3.8.8 0 .4-.3.8-.8.8h-4.8c-.5 0-.9-.4-.9-.9v-8.3c0-.5.4-.9.9-.9h4.6c.4 0 .8.3.8.8 0 .4-.3.8-.8.8h-3.8v2.6zm18-3.5v8.5c0 .5-.4.8-.8.8-.3 0-.5-.1-.7-.4l-4.4-6.3v5.8c0 .5-.4.8-.8.8-.5 0-.8-.4-.8-.8v-8.5c0-.5.4-.8.8-.8.3 0 .5.1.7.4l4.4 6.4v-5.9c0-.5.4-.8.8-.8s.8.4.8.8zm5.7 4.3c0-3.5 1.7-5.2 4.6-5.2 1.8 0 3 .7 3.6 1.6.1.2.2.3.2.5 0 .4-.4.8-.8.8-.2 0-.4-.1-.6-.3-.6-.7-1.2-1-2.3-1-2 0-2.9 1.2-2.9 3.7 0 2.6.9 3.6 2.9 3.6 1.1 0 1.7-.3 2.4-1 .2-.2.4-.3.6-.3.4 0 .8.4.8.8 0 .2-.1.3-.1.4-.7.9-2.1 1.6-3.7 1.6-3 0-4.7-1.6-4.7-5.2zm17.6-1.2l2.2-3.5c.1-.2.4-.4.7-.4.5 0 .9.4.9.9 0 .2 0 .3-.1.5l-2.8 4.2v3.8c0 .5-.4.9-.9.9s-.9-.4-.9-.9v-3.8l-2.8-4.2c-.1-.1-.1-.3-.1-.5 0-.5.4-.9.9-.9.3 0 .6.1.7.4l2.2 3.5z"/><defs><path id="SVGID_1_" d="M121.8 18.3l-5-1.6c-2.2-.7-4.6-.3-6.5 1.1-1.9 1.4-3.1 3.7-3.1 6.1l-.2-.1v-4.4c0-3.4-2.2-6.4-5.4-7.4l-4.9-1.5c-2.2-.7-4.6-.3-6.4 1.1-1.9 1.4-3.1 3.7-3.1 6.1v1.8l-2.3-.5v-6.7c0-3.4-2.1-6.4-5.3-7.4l-12-3.5c-1.4-.4-2.9-.4-4.3 0l-12 3.6c-3.2 1-5.3 4-5.3 7.4v6.7l-2.3.5v-1.8c0-2.4-1.2-4.7-3.1-6.1-1.9-1.4-4.2-1.8-6.4-1.2l-4.9 1.4c-3.2.9-5.4 4-5.4 7.4v4.4l-.2.1c0-2.4-1.2-4.7-3.1-6.1-1.9-1.4-4.3-1.8-6.5-1.1l-5 1.5c-3.2 1-5.3 3.9-5.3 7.3l-.3 37.5-.1 39.5c0 2.7 1.3 5.1 3.5 6.5l54.2 35.2c1.2.8 2.6 1.2 4 1.2s2.8-.4 4-1.2l54.4-35c2.2-1.4 3.5-3.8 3.5-6.5l.1-37.1.1-39.9c0-3.3-2.2-6.3-5.4-7.3zm-56.7 117.6l-52.6-34.2.2-75.3 1.7-.5c.1 2.2 1.1 4.3 2.8 5.7 1.7 1.4 4 2 6.1 1.5l3.5-.7c3.5-.7 6-3.9 6-7.5v-4.5l1.7-.5v1.6c0 2.3 1.1 4.5 2.9 5.9 1.7 1.4 3.9 1.9 6.1 1.5l5.5-1.2c3.5-.7 6-3.9 6-7.5v-6.8l10.3-3.2 10.3 3.2v6.8c0 3.6 2.5 6.8 6 7.5l5.5 1.2c2.1.5 4.4-.1 6.1-1.4 1.8-1.4 2.9-3.6 2.9-5.9v-1.6l1.7.5v4.5c0 3.6 2.5 6.8 6 7.5l3.5.7c2.2.5 4.4-.1 6.1-1.5 1.7-1.4 2.7-3.4 2.9-5.6l1.7.5-.2 74.5-52.7 34.8z"/></defs><clipPath id="SVGID_2_"><use xlink:href="#SVGID_1_" overflow="visible"/></clipPath><g class="st1"><linearGradient id="SVGID_3_" gradientUnits="userSpaceOnUse" x1="22.693" y1="-41.819" x2="127.368" y2="66.829" gradientTransform="matrix(1 .002 -.002 1 -1.887 38.125)"><stop offset="0" stop-color="#61DDFF"/><stop offset="1" stop-color="#0098FF"/></linearGradient><path class="st2" d="M121.9 18.3l-5-1.6c-2.2-.7-4.6-.3-6.5 1.1-1.9 1.4-3.1 3.7-3.1 6.1l-.2-.1v-4.4c0-3.4-2.2-6.4-5.4-7.4l-4.9-1.5c-2.2-.7-4.6-.3-6.4 1.1-1.9 1.4-3.1 3.7-3.1 6.1v1.8l-2.3-.5v-6.7c0-3.4-2.1-6.4-5.3-7.4l-12.1-3.5c-1.4-.4-2.9-.4-4.3 0l-11.9 3.6c-3.2 1-5.4 4-5.4 7.4v6.7l-2.3.5v-1.8c0-2.4-1.2-4.7-3.1-6.1-1.9-1.4-4.2-1.8-6.4-1.2l-4.9 1.4c-3.2.9-5.4 4-5.4 7.4v4.4l-.2.1c0-2.4-1.2-4.7-3.1-6.1-1.9-1.4-4.3-1.8-6.5-1.1l-5 1.5c-3.2 1-5.3 3.9-5.3 7.3l-.3 37.5c.1-24.1 9.2-36.5 9.2-36.5l1.7-.5c.1 2.2 1.1 4.3 2.8 5.7 1.7 1.4 4 2 6.1 1.5l3.5-.7c3.5-.7 6-3.9 6-7.5v-4.5l1.7-.5v1.6c0 2.3 1.1 4.5 2.9 5.9 1.7 1.4 3.9 1.9 6.1 1.5l5.5-1.2c3.5-.7 6-3.9 6-7.5v-6.8l10.3-3.2 10.3 3.2v6.8c0 3.6 2.5 6.8 6 7.5l5.5 1.2c2.1.5 4.4-.1 6.1-1.4 1.8-1.4 2.9-3.6 2.9-5.9v-1.6l1.7.5v4.5c0 3.6 2.5 6.8 6 7.5l3.5.7c2.2.5 4.4-.1 6.1-1.5 1.7-1.4 2.7-3.4 2.9-5.6l1.7.5-.2 75.3s9.1-12.3 9.2-36.4l.1-39.9c.1-3.3-2-6.3-5.2-7.3zm-5.5 5.8z"/><linearGradient id="SVGID_4_" gradientUnits="userSpaceOnUse" x1="105.359" y1="87.499" x2="13.403" y2="-9.554" gradientTransform="matrix(1 .002 -.002 1 -1.887 38.125)"><stop offset="0" stop-color="#61DDFF"/><stop offset="1" stop-color="#0098FF"/></linearGradient><path class="st3" d="M65.1 135.9l-52.6-34.2.2-75.3s-9.1 12.4-9.2 36.5l-.1 39.5c0 2.7 1.3 5.1 3.5 6.5l54.2 35.2c1.2.8 2.6 1.2 4 1.2s2.8-.4 4-1.2l54.4-35c2.2-1.4 3.5-3.8 3.5-6.5l.1-37.1c-.1 24.1-9.2 35.6-9.2 35.6l-52.8 34.8z"/><defs><filter id="Adobe_OpacityMaskFilter" filterUnits="userSpaceOnUse" x="-31.1" y="-5.9" width="77.7" height="77.7"><feColorMatrix values="1 0 0 0 0 0 1 0 0 0 0 0 1 0 0 0 0 0 1 0"/></filter></defs><mask maskUnits="userSpaceOnUse" x="-31.1" y="-5.9" width="77.7" height="77.7" id="SVGID_5_"><g class="st4"><linearGradient id="SVGID_6_" gradientUnits="userSpaceOnUse" x1="-15.362" y1="-35.274" x2="158.069" y2="138.157" gradientTransform="matrix(1 .002 -.002 1 -1.887 38.125)"><stop offset="0" stop-color="#00C6FF"/><stop offset="1" stop-color="#0072FF"/></linearGradient><path class="st5" d="M65.1 135.9l-52.6-34.2.2-75.3s-9.1 12.4-9.2 36.5l-.1 39.5c0 2.7 1.3 5.1 3.5 6.5l54.2 35.2c1.2.8 2.6 1.2 4 1.2s2.8-.4 4-1.2l54.4-35c2.2-1.4 3.5-3.8 3.5-6.5l.1-37.1c-.1 24.1-9.2 35.6-9.2 35.6l-52.8 34.8z"/></g></mask><radialGradient id="SVGID_7_" cx="9.614" cy="-5.169" r="38.847" gradientTransform="matrix(1 .002 -.002 1 -1.887 38.125)" gradientUnits="userSpaceOnUse"><stop offset="0" stop-color="#1D1D1B"/><stop offset=".381" stop-color="#1F1F1D" stop-opacity=".619"/><stop offset=".518" stop-color="#262624" stop-opacity=".482"/><stop offset=".616" stop-color="#31312F" stop-opacity=".384"/><stop offset=".696" stop-color="#424240" stop-opacity=".304"/><stop offset=".763" stop-color="#585856" stop-opacity=".237"/><stop offset=".823" stop-color="#737372" stop-opacity=".177"/><stop offset=".878" stop-color="#939392" stop-opacity=".122"/><stop offset=".928" stop-color="#B8B8B8" stop-opacity=".072"/><stop offset=".972" stop-color="#E1E1E1" stop-opacity=".028"/><stop offset="1" stop-color="#fff" stop-opacity="0"/></radialGradient><circle class="st6" cx="7.7" cy="33" r="38.8"/><defs><filter id="Adobe_OpacityMaskFilter_1_" filterUnits="userSpaceOnUse" x="83.9" y="63.1" width="77.7" height="77.7"><feColorMatrix values="1 0 0 0 0 0 1 0 0 0 0 0 1 0 0 0 0 0 1 0"/></filter></defs><mask maskUnits="userSpaceOnUse" x="83.9" y="63.1" width="77.7" height="77.7" id="SVGID_8_"><g class="st7"><linearGradient id="SVGID_9_" gradientUnits="userSpaceOnUse" x1="6.195" y1="-56.667" x2="178.919" y2="116.057" gradientTransform="matrix(1 .002 -.002 1 -1.887 38.125)"><stop offset="0" stop-color="#00C6FF"/><stop offset="1" stop-color="#0072FF"/></linearGradient><path class="st8" d="M121.9 18.3l-5-1.6c-2.2-.7-4.6-.3-6.5 1.1-1.9 1.4-3.1 3.7-3.1 6.1l-.2-.1v-4.4c0-3.4-2.2-6.4-5.4-7.4l-4.9-1.5c-2.2-.7-4.6-.3-6.4 1.1-1.9 1.4-3.1 3.7-3.1 6.1v1.8l-2.3-.5v-6.7c0-3.4-2.1-6.4-5.3-7.4l-12.1-3.5c-1.4-.4-2.9-.4-4.3 0l-11.9 3.6c-3.2 1-5.4 4-5.4 7.4v6.7l-2.3.5v-1.8c0-2.4-1.2-4.7-3.1-6.1-1.9-1.4-4.2-1.8-6.4-1.2l-4.9 1.4c-3.2.9-5.4 4-5.4 7.4v4.4l-.2.1c0-2.4-1.2-4.7-3.1-6.1-1.9-1.4-4.3-1.8-6.5-1.1l-5 1.5c-3.2 1-5.3 3.9-5.3 7.3l-.3 37.5c.1-24.1 9.2-36.5 9.2-36.5l1.7-.5c.1 2.2 1.1 4.3 2.8 5.7 1.7 1.4 4 2 6.1 1.5l3.5-.7c3.5-.7 6-3.9 6-7.5v-4.5l1.7-.5v1.6c0 2.3 1.1 4.5 2.9 5.9 1.7 1.4 3.9 1.9 6.1 1.5l5.5-1.2c3.5-.7 6-3.9 6-7.5v-6.8l10.3-3.2 10.3 3.2v6.8c0 3.6 2.5 6.8 6 7.5l5.5 1.2c2.1.5 4.4-.1 6.1-1.4 1.8-1.4 2.9-3.6 2.9-5.9v-1.6l1.7.5v4.5c0 3.6 2.5 6.8 6 7.5l3.5.7c2.2.5 4.4-.1 6.1-1.5 1.7-1.4 2.7-3.4 2.9-5.6l1.7.5-.2 74.5s9.1-11.5 9.2-35.6l.1-39.9c.1-3.3-2-6.3-5.2-7.3zm-5.5 5.8z"/></g></mask><radialGradient id="SVGID_10_" cx="124.819" cy="63.558" r="38.847" gradientTransform="matrix(1 .002 -.002 1 -1.887 38.125)" gradientUnits="userSpaceOnUse"><stop offset="0" stop-color="#1D1D1B"/><stop offset=".381" stop-color="#1F1F1D" stop-opacity=".619"/><stop offset=".518" stop-color="#262624" stop-opacity=".482"/><stop offset=".616" stop-color="#31312F" stop-opacity=".384"/><stop offset=".696" stop-color="#424240" stop-opacity=".304"/><stop offset=".763" stop-color="#585856" stop-opacity=".237"/><stop offset=".823" stop-color="#737372" stop-opacity=".177"/><stop offset=".878" stop-color="#939392" stop-opacity=".122"/><stop offset=".928" stop-color="#B8B8B8" stop-opacity=".072"/><stop offset=".972" stop-color="#E1E1E1" stop-opacity=".028"/><stop offset="1" stop-color="#fff" stop-opacity="0"/></radialGradient><circle class="st9" cx="122.8" cy="102" r="38.8"/></g></g></svg>