<svg xmlns="http://www.w3.org/2000/svg" viewBox="0 0 48 48" enable-background="new 0 0 48 48"><path d="M9 19.278l-4.139 3.722-3.861-3.722m27.722-10.278l-3.722-4.139 3.722-3.861m10.278 27.722l4.139-3.722 3.861 3.722m-28 10.278l3.722 4.139-3.722 3.861m2-41.741c-8.085 1.286-14.455 7.656-15.741 15.741m37.482 0c-1.286-8.085-7.656-14.455-15.741-15.741m0 37.482c8.085-1.286 14.455-7.656 15.741-15.741m-37.482 0c1.286 8.085 7.656 14.455 15.741 15.741m6.001-24.424s-.931-1.934-3.266-1.96c-3.674-.041-5.251 5.158-.923 6.646 6.706 2.305 4.281 7.694.988 7.724-2.754.025-3.87-1.875-3.99-2.146m3.799-14.566l.085 19.125" stroke="#000" stroke-width="2" stroke-linecap="round" stroke-miterlimit="10" fill="none"/></svg>