<svg xmlns="http://www.w3.org/2000/svg" viewBox="0 0 48 48" enable-background="new 0 0 48 48"><style type="text/css">.st0{fill:none;stroke:#FFFFFF;stroke-width:2;stroke-linecap:round;stroke-miterlimit:10;}</style><path class="st0" d="M9 19.3l-4.1 3.7-3.9-3.7m27.7-10.3l-3.7-4.1 3.7-3.9m10.3 27.7l4.1-3.7 3.9 3.7m-28 10.3l3.7 4.1-3.7 3.9m2-41.7c-8.1 1.2-14.5 7.6-15.7 15.7m37.4 0c-1.2-8.1-7.6-14.5-15.7-15.7m0 37.4c8.1-1.3 14.5-7.7 15.7-15.7m-37.4 0c1.3 8.1 7.7 14.5 15.7 15.7m6-24.4s-.9-1.9-3.3-2c-3.7 0-5.3 5.2-.9 6.6 6.7 2.3 4.3 7.7 1 7.7-2.8 0-3.9-1.9-4-2.1m3.8-14.5l.1 19.1"/></svg>