<svg width="48" height="48" xmlns="http://www.w3.org/2000/svg"><defs><style>.cls-1{fill:#fff}</style><clipPath id="clip-path"><path class="cls-1" d="M250.7 59.8l-9.7-3a14.1 14.1 0 0 0-12.6 2 15 15 0 0 0-6.1 11.8h-.5v-8.7a15 15 0 0 0-10.5-14.3l-9.5-2.9a14.1 14.1 0 0 0-12.5 2.2 15 15 0 0 0-6 11.9l-.1 3.5-4.5-1v-13a14.8 14.8 0 0 0-10.3-14.2l-23-7.2a14 14 0 0 0-8.5 0L114 34a14.8 14.8 0 0 0-10.4 14.3V61l-4.5 1v-3.6a15 15 0 0 0-6-11.8 14.2 14.2 0 0 0-12.5-2.3L71 47.2a15 15 0 0 0-10.6 14.3V70l-.5.1a15 15 0 0 0-6-11.8 14.1 14.1 0 0 0-12.7-2.1l-9.7 3a14.8 14.8 0 0 0-10.3 14.1l-.2 72.9-.2 76.6a15 15 0 0 0 6.8 12.6L132.8 304a14.3 14.3 0 0 0 15.4 0L253.8 236a15 15 0 0 0 6.8-12.6l.2-72L261 74a14.7 14.7 0 0 0-10.3-14.2zm-110.2 228l-102-66.3.4-146 3.4-1a15 15 0 0 0 5.5 11 14.2 14.2 0 0 0 11.8 2.8l6.8-1.4A14.9 14.9 0 0 0 78 72.4v-8.9l3.3-1v3.2a15 15 0 0 0 5.6 11.6A14.2 14.2 0 0 0 98.6 80l10.7-2.2A14.8 14.8 0 0 0 121 63.3V50.2l20-6.2 20 6.3v13.1a14.8 14.8 0 0 0 11.6 14.7l10.7 2.3a14.2 14.2 0 0 0 11.9-2.8 15 15 0 0 0 5.6-11.5v-3.2l3.4 1v8.8a14.8 14.8 0 0 0 11.5 14.6l6.8 1.4a14.2 14.2 0 0 0 11.9-2.8 14.9 14.9 0 0 0 5.5-11l3.4 1-.4 144.5-102.4 67.4z" id="svg_1"/></clipPath></defs><g stroke="null" id="Layer_2"><path class="cls-1" d="M41.8 6.3L40 5.8a2.4 2.4 0 0 0-2 .3 2.5 2.5 0 0 0-1 2h-.2V6.6a2.5 2.5 0 0 0-1.7-2.3l-1.6-.5a2.4 2.4 0 0 0-2 .4 2.5 2.5 0 0 0-1 2v.5l-.8-.2V4.4A2.5 2.5 0 0 0 28 2L24.2.8a2.3 2.3 0 0 0-1.4 0L19 2a2.5 2.5 0 0 0-1.8 2.4v2.1l-.7.2V6a2.5 2.5 0 0 0-1-2 2.4 2.4 0 0 0-2-.4l-1.7.5A2.5 2.5 0 0 0 10 6.6V8a2.5 2.5 0 0 0-1-2 2.4 2.4 0 0 0-2.1-.3l-1.7.5a2.5 2.5 0 0 0-1.7 2.4v24.9a2.5 2.5 0 0 0 1 2L22.2 47a2.4 2.4 0 0 0 2.6 0l17.6-11.3a2.5 2.5 0 0 0 1.1-2.1v-25a2.5 2.5 0 0 0-1.6-2.3zm-18.4 38l-17-11V8.8l.6-.2a2.5 2.5 0 0 0 1 1.9 2.4 2.4 0 0 0 2 .5l1-.3a2.5 2.5 0 0 0 2-2.4V6.9l.5-.1v.5a2.5 2.5 0 0 0 1 2 2.4 2.4 0 0 0 2 .4l1.7-.4a2.5 2.5 0 0 0 2-2.4V4.7l3.3-1 3.3 1V7a2.5 2.5 0 0 0 2 2.4l1.7.4a2.4 2.4 0 0 0 2-.4 2.5 2.5 0 0 0 1-2v-.5l.5.2v1.4a2.5 2.5 0 0 0 2 2.5l1 .2a2.4 2.4 0 0 0 2-.5 2.5 2.5 0 0 0 1-1.8l.5.2v24L23.4 44.4z" id="svg_2"/><g id="svg_3" clip-path="url(#clip-path)"><path class="cls-1" d="M41.8 6.3l-1.6-.5A2.3 2.3 0 0 0 38 6a2.5 2.5 0 0 0-1 2H37V6.6a2.5 2.5 0 0 0-1.8-2.3l-1.6-.5a2.4 2.4 0 0 0-2 .3 2.5 2.5 0 0 0-1 2v.6l-.8-.2V4.4A2.5 2.5 0 0 0 28 2L24.2.8a2.3 2.3 0 0 0-1.4 0L19 2a2.5 2.5 0 0 0-1.8 2.4v2.1l-.7.2V6a2.5 2.5 0 0 0-1-2 2.4 2.4 0 0 0-2-.4l-1.7.5a2.5 2.5 0 0 0-1.7 2.4V8H10a2.5 2.5 0 0 0-1-2 2.4 2.4 0 0 0-2.1-.3l-1.6.5a2.5 2.5 0 0 0-1.8 2.4v12.1C3.5 13 6.5 9 6.5 9l.5-.2a2.5 2.5 0 0 0 1 1.9 2.4 2.4 0 0 0 2 .5l1-.3a2.5 2.5 0 0 0 2-2.4V6.9l.6-.1v.5a2.5 2.5 0 0 0 .9 2 2.4 2.4 0 0 0 2 .4l1.7-.4a2.5 2.5 0 0 0 2-2.4V4.7l3.3-1 3.3 1V7a2.5 2.5 0 0 0 2 2.4l1.7.4a2.4 2.4 0 0 0 2-.4 2.5 2.5 0 0 0 1-2v-.5l.5.2v1.4a2.5 2.5 0 0 0 2 2.5l1 .2a2.4 2.4 0 0 0 2-.5 2.5 2.5 0 0 0 1-1.8l.5.2v24.3s3-4 3-11.7v-13a2.5 2.5 0 0 0-1.7-2.3zM40 8.2z" id="svg_4"/><path class="cls-1" d="M23.4 44.3l-17-11V8.8s-2.9 4-2.9 11.8v12.8a2.5 2.5 0 0 0 1.1 2L22.1 47a2.4 2.4 0 0 0 1.3.3 2.4 2.4 0 0 0 1.3-.3l17.6-11.3a2.5 2.5 0 0 0 1.1-2.1v-12c0 7.8-3 11.5-3 11.5l-17 11.2z" id="svg_5"/></g></g></svg>