<svg xmlns="http://www.w3.org/2000/svg" viewBox="0 0 48 48" enable-background="new 0 0 48 48"><g stroke="#000" stroke-width="2" stroke-linecap="round" stroke-linejoin="round" stroke-miterlimit="10" fill="none"><path d="M46 24.272v-.544c0-1.507-1.221-2.728-2.728-2.728h-.408c-1.227 0-2.268-.829-2.628-2.001-.314-1.026-.722-2.01-1.215-2.942-.574-1.086-.426-2.409.443-3.277l.285-.285c1.065-1.065 1.065-2.793 0-3.858l-.385-.385c-1.065-1.065-2.793-1.065-3.858 0l-.285.285c-.868.868-2.192 1.016-3.277.443-.933-.493-1.917-.901-2.942-1.215-1.173-.359-2.001-1.401-2.001-2.628v-.408c0-1.507-1.221-2.728-2.728-2.728h-.544c-1.507 0-2.728 1.221-2.728 2.728v.408c0 1.227-.829 2.268-2.001 2.628-1.026.314-2.01.722-2.942 1.215-1.086.574-2.409.426-3.277-.443l-.285-.285c-1.065-1.065-2.793-1.065-3.858 0l-.385.385c-1.065 1.065-1.065 2.793 0 3.858l.285.285c.868.868 1.016 2.192.443 3.277-.493.933-.901 1.917-1.215 2.942-.359 1.173-1.401 2.001-2.628 2.001h-.408c-1.507 0-2.728 1.221-2.728 2.728v.544c0 1.507 1.221 2.728 2.728 2.728h.408c1.227 0 2.268.829 2.628 2.001.314 1.026.722 2.01 1.215 2.942.574 1.086.426 2.409-.443 3.277l-.285.285c-1.065 1.065-1.065 2.793 0 3.858l.385.385c1.065 1.065 2.793 1.065 3.858 0l.285-.285c.868-.868 2.192-1.016 3.277-.443.933.493 1.917.901 2.942 1.215 1.173.359 2.001 1.401 2.001 2.628v.408c0 1.507 1.221 2.728 2.728 2.728h.544c1.507 0 2.728-1.221 2.728-2.728v-.408c0-1.227.829-2.268 2.001-2.628 1.026-.314 2.01-.722 2.942-1.215 1.086-.574 2.409-.426 3.277.443l.285.285c1.065 1.065 2.793 1.065 3.858 0l.385-.385c1.065-1.065 1.065-2.793 0-3.858l-.285-.285c-.868-.868-1.016-2.192-.443-3.277.493-.933.901-1.917 1.215-2.942.359-1.173 1.401-2.001 2.628-2.001h.408c1.507 0 2.728-1.221 2.728-2.728z"/><circle cx="24" cy="24" r="8"/></g></svg>