<svg xmlns="http://www.w3.org/2000/svg" viewBox="0 0 48 48" enable-background="new 0 0 48 48"><style type="text/css">.st0{fill:none;stroke:#FFFFFF;stroke-width:2;stroke-linecap:round;stroke-linejoin:round;stroke-miterlimit:10;}</style><g id="control-3"><path class="st0" d="M46 24.3v-.5c0-1.5-1.2-2.7-2.7-2.7h-.4c-1.2 0-2.3-.8-2.6-2-.3-1-.7-2-1.2-2.9-.6-1.1-.4-2.4.4-3.3l.3-.3c1.1-1.1 1.1-2.8 0-3.9l-.4-.4c-1.1-1.1-2.8-1.1-3.9 0l-.3.3c-.9.9-2.2 1-3.3.4-.9-.5-1.9-.9-2.9-1.2-1.2-.4-2-1.4-2-2.6v-.5c0-1.5-1.2-2.7-2.7-2.7h-.5c-1.6 0-2.8 1.2-2.8 2.7v.4c0 1.2-.8 2.3-2 2.6-1 .3-2 .7-2.9 1.2-1.1.6-2.4.4-3.3-.4l-.3-.3c-1.1-1.1-2.8-1.1-3.9 0l-.3.4c-1.1 1.1-1.1 2.8 0 3.9l.3.3c.9.9 1 2.2.4 3.3-.5.9-.9 1.9-1.2 2.9-.4 1.2-1.4 2-2.6 2h-.5c-1.5 0-2.7 1.2-2.7 2.7v.5c0 1.6 1.2 2.8 2.7 2.8h.4c1.2 0 2.3.8 2.6 2 .3 1 .7 2 1.2 2.9.6 1.1.4 2.4-.4 3.3l-.3.3c-1.1 1.1-1.1 2.8 0 3.9l.4.4c1.1 1.1 2.8 1.1 3.9 0l.3-.3c.9-.9 2.2-1 3.3-.4.9.5 1.9.9 2.9 1.2 1.2.4 2 1.4 2 2.6v.4c0 1.5 1.2 2.7 2.7 2.7h.5c1.5 0 2.7-1.2 2.7-2.7v-.4c0-1.2.8-2.3 2-2.6 1-.3 2-.7 2.9-1.2 1.1-.6 2.4-.4 3.3.4l.3.3c1.1 1.1 2.8 1.1 3.9 0l.4-.4c1.1-1.1 1.1-2.8 0-3.9l-.3-.3c-.9-.9-1-2.2-.4-3.3.5-.9.9-1.9 1.2-2.9.4-1.2 1.4-2 2.6-2h.4c1.6 0 2.8-1.2 2.8-2.7z"/><circle class="st0" cx="24" cy="24" r="8"/></g></svg>