<svg xmlns="http://www.w3.org/2000/svg" xmlns:xlink="http://www.w3.org/1999/xlink" viewBox="0 0 417.3 138.2" enable-background="new 0 0 417.3 138.2"><style type="text/css">.st0{fill:#F4F4F4;} .st1{clip-path:url(#SVGID_2_);} .st2{fill:url(#SVGID_3_);} .st3{fill:url(#SVGID_4_);} .st4{filter:url(#Adobe_OpacityMaskFilter);} .st5{fill:url(#SVGID_6_);} .st6{opacity:0.19;mask:url(#SVGID_5_);fill:url(#SVGID_7_);} .st7{filter:url(#Adobe_OpacityMaskFilter_1_);} .st8{fill:url(#SVGID_9_);} .st9{opacity:0.19;mask:url(#SVGID_8_);fill:url(#SVGID_10_);}</style><g id="Layer_1_1_"><path class="st0" d="M162.4 68.6c-1.4 0-2.6-1.2-2.6-2.6v-24.6c0-1.4 1.2-2.6 2.6-2.6h8c6.7 0 9.1 3.6 9.1 7.7 0 2.9-1.5 5.1-3.3 6 3.3 1.3 4.6 3.7 4.6 7.1 0 5.4-3.2 8.9-9.6 8.9h-8.8zm2.6-17.6h5.4c2.8 0 3.9-1.6 3.9-3.8 0-2.3-1.2-3.8-3.9-3.8h-5.4v7.6zm0 13h6.2c3.1 0 4.4-1.7 4.4-4.3 0-2.7-1.5-4.3-4.4-4.3h-6.2v8.6zm33.3-5.2v-17.8c0-1.4 1.2-2.6 2.6-2.6 1.4 0 2.6 1.2 2.6 2.6v17.8c0 2.7 1 5.8 6 5.8s6-3.1 6-5.8v-17.8c0-1.4 1.2-2.6 2.6-2.6 1.4 0 2.6 1.2 2.6 2.6v17.8c0 5-2.2 10.4-11.2 10.4s-11.2-5.3-11.2-10.4zm56.2 5c1.5 0 2.5 1.1 2.5 2.4 0 1.4-1 2.4-2.5 2.4h-13.1c-1.5 0-2.5-1.1-2.5-2.5v-25.1c0-1.4 1.2-2.6 2.6-2.6 1.4 0 2.6 1.2 2.6 2.6v22.8h10.4zm31.3-14.9l-5.1 18.1c-.3 1.1-1.3 1.9-2.5 1.9s-2.1-.8-2.4-1.8l-7.6-25.4c-.1-.3-.1-.5-.1-.8 0-1.4 1.2-2.6 2.6-2.6s2.2 1 2.4 1.8l5.2 18.6 5-18.5c.3-1.2 1.4-1.9 2.5-1.9s2.2.7 2.5 1.9l5 18.5 5.2-18.6c.2-.8 1-1.8 2.4-1.8s2.6 1.2 2.6 2.6c0 .3 0 .5-.1.8l-7.6 25.4c-.3 1-1.3 1.8-2.4 1.8-1.2 0-2.2-.8-2.5-1.9l-5.1-18.1zm37 11.9l-2.7 6.4c-.4.9-1.2 1.7-2.4 1.7-1.4 0-2.5-1.2-2.5-2.5 0-.3 0-.6.2-.9l10.4-25.5c.3-.6 1-1.6 2.3-1.6s2.1 1 2.3 1.6l10.4 25.4c.1.3.2.7.2.9 0 1.4-1.2 2.5-2.5 2.5-1.2 0-2-.8-2.4-1.7l-2.7-6.4h-10.6zm5.3-14l-3.6 9.3h7.3l-3.7-9.3zm34.9 10.4v9.2c0 1.4-1.1 2.6-2.6 2.6-1.4 0-2.6-1.2-2.6-2.6v-25c0-1.4 1.2-2.6 2.6-2.6h8.5c6 0 9.3 4.2 9.3 9.2 0 4.2-2.6 8.3-6.8 8.8l6.5 8c.4.5.5 1.1.5 1.5 0 1.4-1.2 2.6-2.6 2.6-.8 0-1.5-.4-2-.9l-8.1-10.8h-2.7zm0-13.8v9.2h6c2.7 0 3.9-2.3 3.9-4.6 0-2.4-1.2-4.6-4.1-4.6h-5.8zm38 7.7l10.6-11.9c.5-.6 1.2-.8 1.9-.8 1.4 0 2.5 1.1 2.5 2.5 0 .7-.3 1.2-.7 1.7l-8.3 9 9.8 13.3c.3.4.5.9.5 1.5 0 1.4-1.2 2.5-2.5 2.5-1.1 0-1.7-.6-2.1-1.1l-9.1-12.6-2.5 2.7v8.5c0 1.4-1.1 2.6-2.6 2.6-1.4 0-2.6-1.2-2.6-2.6v-25.4c0-1.4 1.2-2.6 2.6-2.6 1.4 0 2.6 1.2 2.6 2.6v10.1zm-238.6 17.5c-1.4 0-2.6-1.2-2.6-2.6v-24.6c0-1.4 1.2-2.6 2.6-2.6h8c6.7 0 9.1 3.6 9.1 7.7 0 2.9-1.5 5.1-3.3 6 3.3 1.3 4.6 3.7 4.6 7.1 0 5.4-3.2 8.9-9.6 8.9h-8.8zm2.6-17.6h5.4c2.8 0 3.9-1.6 3.9-3.8 0-2.3-1.2-3.8-3.9-3.8h-5.4v7.6zm0 13h6.2c3.1 0 4.4-1.7 4.4-4.3 0-2.7-1.5-4.3-4.4-4.3h-6.2v8.6zm33.3-5.2v-17.8c0-1.4 1.2-2.6 2.6-2.6 1.4 0 2.6 1.2 2.6 2.6v17.8c0 2.7 1 5.8 6 5.8s6-3.1 6-5.8v-17.8c0-1.4 1.2-2.6 2.6-2.6 1.4 0 2.6 1.2 2.6 2.6v17.8c0 5-2.2 10.4-11.2 10.4s-11.2-5.3-11.2-10.4zm56.2 5c1.5 0 2.5 1.1 2.5 2.4 0 1.4-1 2.4-2.5 2.4h-13.1c-1.5 0-2.5-1.1-2.5-2.5v-25.1c0-1.4 1.2-2.6 2.6-2.6 1.4 0 2.6 1.2 2.6 2.6v22.8h10.4zm31.3-14.9l-5.1 18.1c-.3 1.1-1.3 1.9-2.5 1.9s-2.1-.8-2.4-1.8l-7.6-25.4c-.1-.3-.1-.5-.1-.8 0-1.4 1.2-2.6 2.6-2.6 1.4 0 2.2 1 2.4 1.8l5.2 18.6 5-18.5c.3-1.2 1.4-1.9 2.5-1.9s2.2.7 2.5 1.9l5 18.5 5.2-18.6c.2-.8 1-1.8 2.4-1.8s2.6 1.2 2.6 2.6c0 .3 0 .5-.1.8l-7.6 25.4c-.3 1-1.3 1.8-2.4 1.8-1.2 0-2.2-.8-2.5-1.9l-5.1-18.1zm37 11.9l-2.7 6.4c-.4.9-1.2 1.7-2.4 1.7-1.4 0-2.5-1.2-2.5-2.5 0-.3 0-.6.2-.9l10.4-25.5c.3-.6 1-1.6 2.3-1.6s2.1 1 2.3 1.6l10.4 25.4c.1.3.2.7.2.9 0 1.4-1.1 2.5-2.5 2.5-1.2 0-2-.8-2.4-1.7l-2.7-6.4h-10.6zm5.3-14l-3.6 9.3h7.3l-3.7-9.3zm34.9 10.4v9.2c0 1.4-1.2 2.6-2.6 2.6-1.4 0-2.6-1.2-2.6-2.6v-25c0-1.4 1.2-2.6 2.6-2.6h8.5c6 0 9.3 4.2 9.3 9.2 0 4.2-2.6 8.3-6.8 8.8l6.5 8c.4.5.5 1.1.5 1.5 0 1.4-1.2 2.6-2.6 2.6-.8 0-1.5-.4-2-.9l-8.1-10.8h-2.7zm0-13.8v9.2h6c2.7 0 3.9-2.3 3.9-4.6 0-2.4-1.2-4.6-4.1-4.6h-5.8zm38 7.7l10.6-11.9c.5-.6 1.2-.8 1.9-.8 1.4 0 2.5 1.1 2.5 2.5 0 .7-.3 1.2-.7 1.7l-8.3 9 9.8 13.3c.3.4.5.9.5 1.5 0 1.4-1.2 2.5-2.5 2.5-1.1 0-1.7-.6-2.1-1.1l-9.1-12.6-2.5 2.7v8.5c0 1.4-1.2 2.6-2.6 2.6-1.4 0-2.6-1.2-2.6-2.6v-25.4c0-1.4 1.2-2.6 2.6-2.6 1.4 0 2.6 1.2 2.6 2.6v10.1zm-198.9 38.3c0-3.4 1.6-5 4.5-5 1.7 0 2.9.7 3.4 1.5.1.2.2.3.2.5 0 .4-.3.8-.8.8-.2 0-.4-.1-.6-.3-.6-.6-1.2-1-2.2-1-1.9 0-2.8 1.2-2.8 3.5 0 2.5.9 3.5 2.8 3.5 1.1 0 1.6-.2 2.3-.9.2-.2.4-.3.6-.3.4 0 .8.3.8.8 0 .2-.1.3-.1.4-.7.9-2 1.5-3.6 1.5-2.8 0-4.5-1.5-4.5-5zm15.5 1.1v3c0 .5-.4.8-.8.8s-.8-.4-.8-.8v-8.1c0-.5.4-.8.8-.8h2.7c1.9 0 3 1.4 3 3 0 1.4-.8 2.7-2.2 2.8l2.1 2.6c.1.2.2.3.2.5 0 .5-.4.8-.8.8-.2 0-.5-.1-.6-.3l-2.6-3.5h-1zm0-4.4v3h1.9c.9 0 1.3-.7 1.3-1.5s-.4-1.5-1.3-1.5h-1.9zm13.7 2.2l2.2-3.4c.1-.2.4-.4.7-.4.5 0 .8.4.8.8 0 .2 0 .3-.1.4l-2.7 4.1v3.7c0 .5-.4.8-.8.8-.5 0-.8-.4-.8-.8v-3.7l-2.7-4.1c-.1-.1-.1-.3-.1-.4 0-.5.4-.8.8-.8.3 0 .5.1.7.4l2 3.4zm10.7 2.2v3c0 .5-.4.8-.8.8-.5 0-.8-.4-.8-.8v-8.1c0-.5.4-.8.8-.8h2.7c1.7 0 3 .9 3 2.9s-1.3 2.9-3 2.9h-1.9zm0-4.4v2.9h1.8c.9 0 1.4-.5 1.4-1.5 0-.9-.5-1.4-1.4-1.4h-1.8zm14.6 0v7.4c0 .5-.4.8-.8.8s-.8-.4-.8-.8v-7.4h-2.2c-.4 0-.7-.3-.7-.7 0-.4.3-.7.7-.7h6c.4 0 .7.3.7.7 0 .4-.3.7-.7.7h-2.2zm7.5 3.3c0-3.4 1.6-5 4.5-5s4.5 1.6 4.5 5c0 3.3-1.6 5-4.5 5s-4.5-1.6-4.5-5zm1.7 0c0 2.4.9 3.5 2.8 3.5s2.8-1.2 2.8-3.5c0-2.4-.9-3.5-2.8-3.5s-2.8 1.2-2.8 3.5zm12.6 0c0-3.4 1.6-5 4.5-5 1.7 0 2.9.7 3.4 1.5.1.2.2.3.2.5 0 .4-.3.8-.8.8-.2 0-.4-.1-.6-.3-.6-.6-1.2-1-2.2-1-1.9 0-2.8 1.2-2.8 3.5 0 2.5.9 3.5 2.8 3.5 1.1 0 1.6-.2 2.3-.9.2-.2.4-.3.6-.3.4 0 .8.3.8.8 0 .2-.1.3-.1.4-.7.9-2 1.5-3.6 1.5-2.9 0-4.5-1.5-4.5-5zm13.8 1.7v-5.8c0-.5.4-.8.8-.8.5 0 .8.4.8.8v5.8c0 .9.3 1.9 1.9 1.9 1.6 0 1.9-1 1.9-1.9v-5.8c0-.5.4-.8.8-.8.5 0 .8.4.8.8v5.8c0 1.6-.7 3.3-3.6 3.3-2.7 0-3.4-1.7-3.4-3.3zm14.8-.6v3c0 .5-.4.8-.8.8-.5 0-.8-.4-.8-.8v-8.1c0-.5.4-.8.8-.8h2.7c1.9 0 3 1.4 3 3 0 1.4-.8 2.7-2.2 2.8l2.1 2.6c.1.2.2.3.2.5 0 .5-.4.8-.8.8-.2 0-.5-.1-.6-.3l-2.6-3.5h-1zm0-4.4v3h1.9c.9 0 1.3-.7 1.3-1.5s-.4-1.5-1.3-1.5h-1.9zm12.3 4.4v3c0 .5-.4.8-.8.8-.5 0-.8-.4-.8-.8v-8.1c0-.5.4-.8.8-.8h2.7c1.9 0 3 1.4 3 3 0 1.4-.8 2.7-2.2 2.8l2.1 2.6c.1.2.2.3.2.5 0 .5-.4.8-.8.8-.2 0-.5-.1-.6-.3l-2.6-3.5h-1zm0-4.4v3h1.9c.9 0 1.3-.7 1.3-1.5s-.4-1.5-1.3-1.5h-1.9zm12.2 2.6h2.7c.4 0 .7.3.7.7s-.3.7-.7.7h-2.7v2.6h3.8c.4 0 .7.3.7.7 0 .4-.3.7-.7.7h-4.6c-.5 0-.8-.4-.8-.8v-8c0-.5.4-.8.8-.8h4.5c.4 0 .7.3.7.7 0 .4-.3.7-.7.7h-3.6v2.8zm17.4-3.4v8.2c0 .4-.4.8-.8.8-.3 0-.5-.1-.7-.4l-4.2-6.1v5.6c0 .4-.4.8-.8.8s-.8-.4-.8-.8v-8.2c0-.4.4-.8.8-.8.3 0 .5.1.7.3l4.2 6.1v-5.7c0-.4.4-.8.8-.8s.8.6.8 1zm5.5 4.1c0-3.4 1.6-5 4.5-5 1.7 0 2.9.7 3.4 1.5.1.2.2.3.2.5 0 .4-.3.8-.8.8-.2 0-.4-.1-.6-.3-.6-.6-1.2-1-2.2-1-1.9 0-2.8 1.2-2.8 3.5 0 2.5.9 3.5 2.8 3.5 1.1 0 1.6-.2 2.3-.9.2-.2.4-.3.6-.3.4 0 .8.3.8.8 0 .2-.1.3-.1.4-.7.9-2 1.5-3.6 1.5-2.8 0-4.5-1.5-4.5-5zm16.9-1.1l2.2-3.4c.1-.2.4-.4.7-.4.5 0 .8.4.8.8 0 .2 0 .3-.1.4l-2.7 4.1v3.7c0 .5-.4.8-.8.8-.5 0-.8-.4-.8-.8v-3.7l-2.7-4.1c-.1-.1-.1-.3-.1-.4 0-.5.4-.8.8-.8.3 0 .5.1.7.4l2 3.4z"/><defs><path id="SVGID_1_" d="M113.9 16.3l-4.8-1.5c-2.2-.7-4.4-.3-6.3 1-1.8 1.3-3 3.5-3 5.8h-.2v-4.3c0-3.3-2.1-6.2-5.2-7.1l-4.7-1.4c-2.1-.6-4.4-.2-6.2 1.1-1.9 1.4-3 3.6-3 5.9v1.8l-2.2-.5v-6.4c0-3.3-2-6.1-5.1-7.1l-11.6-3.6c-1.4-.4-2.8-.4-4.2 0l-11.5 3.5c-3.1.9-5.1 3.8-5.1 7.1v6.4l-2.2.5v-1.8c0-2.3-1.1-4.5-3-5.9-1.8-1.3-4.1-1.7-6.2-1.1l-4.8 1.4c-3.1.9-5.2 3.8-5.2 7.1v4.3h-.2c0-2.3-1.2-4.5-3-5.9-1.8-1.3-4.1-1.7-6.3-1.1l-4.8 1.5c-3.1 1-5.2 3.8-5.2 7.1l-.1 36.2-.1 38.1c0 2.6 1.2 4.9 3.4 6.3l52.3 33.9c1.2.8 2.5 1.1 3.8 1.1 1.3 0 2.7-.4 3.8-1.1l52.4-33.7c2.1-1.4 3.4-3.7 3.4-6.2l.1-35.8.1-38.5c0-3.3-2-6.1-5.1-7.1zm-54.7 113.3l-50.7-32.9.2-72.6 1.7-.5c.1 2.1 1.1 4.1 2.7 5.5 1.7 1.4 3.8 1.9 5.9 1.4l3.4-.7c3.3-.7 5.8-3.7 5.8-7.2v-4.4l1.6-.5v1.6c0 2.3 1 4.3 2.8 5.7 1.7 1.3 3.8 1.9 5.9 1.4l5.3-1.1c3.3-.7 5.8-3.7 5.8-7.2v-6.5l9.9-3 9.9 3.1v6.5c0 3.5 2.4 6.6 5.7 7.3l5.3 1.1c2.1.4 4.2-.1 5.9-1.4 1.7-1.4 2.8-3.5 2.8-5.7v-1.6l1.6.5v4.4c0 3.5 2.4 6.5 5.7 7.3l3.4.7c2.1.4 4.2-.1 5.9-1.4 1.7-1.3 2.6-3.3 2.8-5.4l1.7.5-.2 71.7-50.8 33.4z"/></defs><clipPath id="SVGID_2_"><use xlink:href="#SVGID_1_" overflow="visible"/></clipPath><g class="st1"><linearGradient id="SVGID_3_" gradientUnits="userSpaceOnUse" x1="18.421" y1="-46.108" x2="119.299" y2="58.597" gradientTransform="matrix(1 .002 -.002 1 -1.904 41.212)"><stop offset="0" stop-color="#F9F9F9"/><stop offset="1" stop-color="#D3D3D3"/></linearGradient><path class="st2" d="M113.9 16.3l-4.8-1.5c-2.2-.7-4.4-.3-6.3 1-1.8 1.3-3 3.5-3 5.8h-.2v-4.3c0-3.3-2.1-6.2-5.2-7.1l-4.7-1.4c-2.1-.6-4.4-.2-6.2 1.1-1.9 1.4-3 3.6-3 5.9v1.8l-2.2-.5v-6.4c0-3.3-2-6.1-5.1-7.1l-11.6-3.6c-1.4-.4-2.8-.4-4.2 0l-11.4 3.5c-3.1.9-5.1 3.8-5.1 7.1v6.4l-2.2.5v-1.8c0-2.3-1.1-4.5-3-5.9-1.8-1.3-4.1-1.7-6.2-1.1l-4.8 1.4c-3.1.9-5.2 3.8-5.2 7.1v4.3h-.2c0-2.3-1.2-4.5-3-5.9-1.8-1.3-4.1-1.7-6.3-1.1l-4.8 1.5c-3.2 1-5.2 3.8-5.2 7.1l-.1 36.2c.1-23.2 8.9-35.2 8.9-35.2l1.7-.5c.1 2.1 1.1 4.1 2.7 5.5 1.7 1.4 3.8 1.9 5.9 1.4l3.4-.7c3.3-.7 5.8-3.7 5.8-7.2v-4.4l1.6-.5v1.6c0 2.3 1 4.3 2.8 5.7 1.7 1.3 3.8 1.9 5.9 1.4l5.3-1.1c3.3-.7 5.8-3.7 5.8-7.2v-6.5l9.9-3 9.9 3.1v6.5c0 3.5 2.4 6.6 5.7 7.3l5.3 1.1c2.1.4 4.2-.1 5.9-1.4 1.7-1.4 2.8-3.5 2.8-5.7v-1.6l1.6.5v4.4c0 3.5 2.4 6.5 5.7 7.3l3.4.7c2.1.4 4.2-.1 5.9-1.4 1.7-1.3 2.6-3.3 2.8-5.4l1.7.5-.2 72.6s8.8-11.8 8.9-35.1l.1-38.5c0-3.4-2.1-6.2-5.2-7.2zm-5.3 5.6z"/><linearGradient id="SVGID_4_" gradientUnits="userSpaceOnUse" x1="98.088" y1="78.517" x2="9.467" y2="-15.014" gradientTransform="matrix(1 .002 -.002 1 -1.904 41.212)"><stop offset="0" stop-color="#F9F9F9"/><stop offset="1" stop-color="#D3D3D3"/></linearGradient><path class="st3" d="M59.2 129.6l-50.6-32.9.2-72.6s-8.8 12-8.9 35.2l-.1 38.1c0 2.6 1.2 4.9 3.4 6.3l52.3 33.9c1.2.8 2.5 1.1 3.8 1.1 1.3 0 2.7-.4 3.8-1.1l52.4-33.7c2.1-1.4 3.4-3.7 3.4-6.2l.1-35.8c-.1 23.2-8.9 34.3-8.9 34.3l-50.9 33.4z"/><defs><filter id="Adobe_OpacityMaskFilter" filterUnits="userSpaceOnUse" x="-33.5" y="-7" width="74.9" height="74.9"><feColorMatrix values="1 0 0 0 0 0 1 0 0 0 0 0 1 0 0 0 0 0 1 0"/></filter></defs><mask maskUnits="userSpaceOnUse" x="-33.5" y="-7" width="74.9" height="74.9" id="SVGID_5_"><g class="st4"><linearGradient id="SVGID_6_" gradientUnits="userSpaceOnUse" x1="-18.254" y1="-39.801" x2="148.886" y2="127.339" gradientTransform="matrix(1 .002 -.002 1 -1.904 41.212)"><stop offset="0" stop-color="#00C6FF"/><stop offset="1" stop-color="#0072FF"/></linearGradient><path class="st5" d="M59.2 129.6l-50.6-32.9.2-72.6s-8.8 12-8.9 35.2l-.1 38.1c0 2.6 1.2 4.9 3.4 6.3l52.3 33.9c1.2.8 2.5 1.1 3.8 1.1 1.3 0 2.7-.4 3.8-1.1l52.4-33.7c2.1-1.4 3.4-3.7 3.4-6.2l.1-35.8c-.1 23.2-8.9 34.3-8.9 34.3l-50.9 33.4z"/></g></mask><radialGradient id="SVGID_7_" cx="5.816" cy="-10.789" r="37.438" gradientTransform="matrix(1 .002 -.002 1 -1.904 41.212)" gradientUnits="userSpaceOnUse"><stop offset="0" stop-color="#1D1D1B"/><stop offset=".381" stop-color="#1F1F1D" stop-opacity=".619"/><stop offset=".518" stop-color="#262624" stop-opacity=".482"/><stop offset=".616" stop-color="#31312F" stop-opacity=".384"/><stop offset=".696" stop-color="#424240" stop-opacity=".304"/><stop offset=".763" stop-color="#585856" stop-opacity=".237"/><stop offset=".823" stop-color="#737372" stop-opacity=".177"/><stop offset=".878" stop-color="#939392" stop-opacity=".122"/><stop offset=".928" stop-color="#B8B8B8" stop-opacity=".072"/><stop offset=".972" stop-color="#E1E1E1" stop-opacity=".028"/><stop offset="1" stop-color="#fff" stop-opacity="0"/></radialGradient><circle class="st6" cx="3.9" cy="30.4" r="37.4"/><defs><filter id="Adobe_OpacityMaskFilter_1_" filterUnits="userSpaceOnUse" x="77.4" y="59.5" width="74.9" height="74.9"><feColorMatrix values="1 0 0 0 0 0 1 0 0 0 0 0 1 0 0 0 0 0 1 0"/></filter></defs><mask maskUnits="userSpaceOnUse" x="77.4" y="59.5" width="74.9" height="74.9" id="SVGID_8_"><g class="st7"><linearGradient id="SVGID_9_" gradientUnits="userSpaceOnUse" x1="2.521" y1="-60.418" x2="168.979" y2="106.04" gradientTransform="matrix(1 .002 -.002 1 -1.904 41.212)"><stop offset="0" stop-color="#00C6FF"/><stop offset="1" stop-color="#0072FF"/></linearGradient><path class="st8" d="M113.9 16.3l-4.8-1.5c-2.2-.7-4.4-.3-6.3 1-1.8 1.3-3 3.5-3 5.8h-.2v-4.3c0-3.3-2.1-6.2-5.2-7.1l-4.7-1.4c-2.1-.6-4.4-.2-6.2 1.1-1.9 1.4-3 3.6-3 5.9v1.8l-2.2-.5v-6.4c0-3.3-2-6.1-5.1-7.1l-11.6-3.6c-1.4-.4-2.8-.4-4.2 0l-11.4 3.5c-3.1.9-5.1 3.8-5.1 7.1v6.4l-2.2.5v-1.8c0-2.3-1.1-4.5-3-5.9-1.8-1.3-4.1-1.7-6.2-1.1l-4.8 1.4c-3.1.9-5.2 3.8-5.2 7.1v4.3h-.2c0-2.3-1.2-4.5-3-5.9-1.8-1.3-4.1-1.7-6.3-1.1l-4.8 1.5c-3.2 1-5.2 3.8-5.2 7.1l-.1 36.2c.1-23.2 8.9-35.2 8.9-35.2l1.7-.5c.1 2.1 1.1 4.1 2.7 5.5 1.7 1.4 3.8 1.9 5.9 1.4l3.4-.7c3.3-.7 5.8-3.7 5.8-7.2v-4.4l1.6-.5v1.6c0 2.3 1 4.3 2.8 5.7 1.7 1.3 3.8 1.9 5.9 1.4l5.3-1.1c3.3-.7 5.8-3.7 5.8-7.2v-6.5l9.9-3 9.9 3.1v6.5c0 3.5 2.4 6.6 5.7 7.3l5.3 1.1c2.1.4 4.2-.1 5.9-1.4 1.7-1.4 2.8-3.5 2.8-5.7v-1.6l1.6.5v4.4c0 3.5 2.4 6.5 5.7 7.3l3.4.7c2.1.4 4.2-.1 5.9-1.4 1.7-1.3 2.6-3.3 2.8-5.4l1.7.5-.2 71.8s8.8-11.1 8.9-34.3l.1-38.5c0-3.4-2.1-6.2-5.2-7.2zm-5.3 5.6z"/></g></mask><radialGradient id="SVGID_10_" cx="116.842" cy="55.446" r="37.438" gradientTransform="matrix(1 .002 -.002 1 -1.904 41.212)" gradientUnits="userSpaceOnUse"><stop offset="0" stop-color="#1D1D1B"/><stop offset=".381" stop-color="#1F1F1D" stop-opacity=".619"/><stop offset=".518" stop-color="#262624" stop-opacity=".482"/><stop offset=".616" stop-color="#31312F" stop-opacity=".384"/><stop offset=".696" stop-color="#424240" stop-opacity=".304"/><stop offset=".763" stop-color="#585856" stop-opacity=".237"/><stop offset=".823" stop-color="#737372" stop-opacity=".177"/><stop offset=".878" stop-color="#939392" stop-opacity=".122"/><stop offset=".928" stop-color="#B8B8B8" stop-opacity=".072"/><stop offset=".972" stop-color="#E1E1E1" stop-opacity=".028"/><stop offset="1" stop-color="#fff" stop-opacity="0"/></radialGradient><circle class="st9" cx="114.8" cy="96.9" r="37.4"/></g></g></svg>